ISO-10303-21;
HEADER;
FILE_DESCRIPTION(('Open CASCADE Model'),'2;1');
FILE_NAME('Open CASCADE Shape Model','2026-04-27T21:40:22',('Author'),(
    'Open CASCADE'),'Open CASCADE STEP processor 7.7','Open CASCADE 7.7'
  ,'Unknown');
FILE_SCHEMA(('AUTOMOTIVE_DESIGN { 1 0 10303 214 1 1 1 1 }'));
ENDSEC;
DATA;
#1 = APPLICATION_PROTOCOL_DEFINITION('international standard',
  'automotive_design',2000,#2);
#2 = APPLICATION_CONTEXT(
  'core data for automotive mechanical design processes');
#3 = SHAPE_DEFINITION_REPRESENTATION(#4,#10);
#4 = PRODUCT_DEFINITION_SHAPE('','',#5);
#5 = PRODUCT_DEFINITION('design','',#6,#9);
#6 = PRODUCT_DEFINITION_FORMATION('','',#7);
#7 = PRODUCT('Open CASCADE STEP translator 7.7 10',
  'Open CASCADE STEP translator 7.7 10','',(#8));
#8 = PRODUCT_CONTEXT('',#2,'mechanical');
#9 = PRODUCT_DEFINITION_CONTEXT('part definition',#2,'design');
#10 = ADVANCED_BREP_SHAPE_REPRESENTATION('',(#11,#15),#832);
#11 = AXIS2_PLACEMENT_3D('',#12,#13,#14);
#12 = CARTESIAN_POINT('',(0.,0.,0.));
#13 = DIRECTION('',(0.,0.,1.));
#14 = DIRECTION('',(1.,0.,-0.));
#15 = MANIFOLD_SOLID_BREP('',#16);
#16 = CLOSED_SHELL('',(#17,#824,#828));
#17 = ADVANCED_FACE('',(#18),#118,.F.);
#18 = FACE_BOUND('',#19,.F.);
#19 = EDGE_LOOP('',(#20,#755,#789,#790));
#20 = ORIENTED_EDGE('',*,*,#21,.T.);
#21 = EDGE_CURVE('',#22,#24,#26,.T.);
#22 = VERTEX_POINT('',#23);
#23 = CARTESIAN_POINT('',(4.349999328634,8.113227267792E-08,
    -18.45111150858));
#24 = VERTEX_POINT('',#25);
#25 = CARTESIAN_POINT('',(4.350000896014,-6.328661228405E-08,
    16.508889379117));
#26 = SEAM_CURVE('',#27,(#117,#748),.PCURVE_S1.);
#27 = ( BOUNDED_CURVE() B_SPLINE_CURVE(11,(#28,#29,#30,#31,#32,#33,#34,
    #35,#36,#37,#38,#39,#40,#41,#42,#43,#44,#45,#46,#47,#48,#49,#50,#51,
    #52,#53,#54,#55,#56,#57,#58,#59,#60,#61,#62,#63,#64,#65,#66,#67,#68,
    #69,#70,#71,#72,#73,#74,#75,#76,#77,#78,#79,#80,#81,#82,#83,#84,#85,
    #86,#87,#88,#89,#90,#91,#92,#93,#94,#95,#96,#97,#98,#99,#100,#101,
    #102,#103,#104,#105,#106,#107,#108,#109,#110,#111,#112,#113,#114,
#115,#116),.UNSPECIFIED.,.F.,.F.) B_SPLINE_CURVE_WITH_KNOTS((12,11,11,11
    ,11,11,11,11,12),(0.,8.310341285442,16.620682570883,24.931023856325,
    33.241365141766,41.551706427208,49.86204771265,58.172388998091,
66.482730283533),.PIECEWISE_BEZIER_KNOTS.) CURVE() 
GEOMETRIC_REPRESENTATION_ITEM() RATIONAL_B_SPLINE_CURVE((1.669078461068,
    1.669078461068,1.669078461068,1.669078461068,1.669078461068,
    1.669078461068,1.669078461068,1.669078461068,1.669078461068,
    1.669078461068,1.669078461068,1.669078461068,1.669078461068,
    1.669078461068,1.66907846107,1.669078461066,1.669078461071,
    1.669078461065,1.66907846107,1.669078461067,1.669078461069,
    1.669078461068,1.669078461068,1.669078461068,1.669078461068,
    1.669078461069,1.669078461068,1.669078461069,1.669078461068,
    1.669078461069,1.669078461068,1.669078461068,1.669078461068,
    1.669078461068,1.669078461068,1.669078461068,1.66907846107,
    1.669078461066,1.669078461071,1.669078461065,1.66907846107,
    1.669078461067,1.669078461069,1.669078461068,1.669078461068,
    1.669078461068,1.669078461069,1.669078461067,1.669078461071,
    1.669078461065,1.669078461071,1.669078461066,1.669078461069,
    1.669078461068,1.669078461068,1.669078461068,1.669078461068,
    1.669078461069,1.669078461067,1.66907846107,1.669078461066,
    1.66907846107,1.669078461067,1.669078461069,1.669078461068,
    1.669078461068,1.669078461068,1.669078461068,1.669078461069,
    1.669078461067,1.66907846107,1.669078461066,1.669078461071,
    1.669078461067,1.669078461069,1.669078461068,1.669078461068,
    1.669078461068,1.669078461068,1.669078461068,1.669078461069,
    1.669078461067,1.66907846107,1.669078461066,1.66907846107,
    1.669078461067,1.669078461069,1.669078461068,1.669078461068)) 
REPRESENTATION_ITEM('') );
#28 = CARTESIAN_POINT('',(4.349999328634,8.113227267792E-08,
    -18.45111150858));
#29 = CARTESIAN_POINT('',(4.350011153015,2.795309979723,-18.05383205492)
  );
#30 = CARTESIAN_POINT('',(2.375366533344,5.590836607521,-17.65659293269)
  );
#31 = CARTESIAN_POINT('',(-1.58627607725,6.832796762315,-17.25922117237)
  );
#32 = CARTESIAN_POINT('',(-6.103393068736,4.976130102051,-16.86215075505
    ));
#33 = CARTESIAN_POINT('',(-8.627724666996,-0.154427301215,
    -16.46457307129));
#34 = CARTESIAN_POINT('',(-6.210523429761,-5.991820891468,
    -16.06764905823));
#35 = CARTESIAN_POINT('',(-0.796677842672,-7.834138484707,
    -15.67007137422));
#36 = CARTESIAN_POINT('',(3.709642182837,-5.953347575154,-15.27300095722
    ));
#37 = CARTESIAN_POINT('',(5.633028831008,-2.273614484597,-14.87562919668
    ));
#38 = CARTESIAN_POINT('',(5.052489334609,1.099324075484,-14.47839007454)
  );
#39 = CARTESIAN_POINT('',(3.075915176516,3.075915087006,-14.08111062086)
  );
#40 = CARTESIAN_POINT('',(1.099337297391,5.052502994306,-13.68383384801)
  );
#41 = CARTESIAN_POINT('',(-2.27367672625,5.632959559593,-13.28659002271)
  );
#42 = CARTESIAN_POINT('',(-5.953188794978,3.709845949321,-12.88922505842
    ));
#43 = CARTESIAN_POINT('',(-7.834400077112,-0.79709039239,-12.49214643598
    ));
#44 = CARTESIAN_POINT('',(-5.991531488927,-6.209923750946,
    -12.09457707742));
#45 = CARTESIAN_POINT('',(-0.154641841244,-8.628356919133,
    -11.69764597318));
#46 = CARTESIAN_POINT('',(4.976233492875,-6.102910954598,-11.30007331725
    ));
#47 = CARTESIAN_POINT('',(6.832766907065,-1.586538198453,-10.90299998722
    ));
#48 = CARTESIAN_POINT('',(5.590840615889,2.375464258691,-10.5056295553)
  );
#49 = CARTESIAN_POINT('',(2.79531007192,4.349989070339,-10.10838999384)
  );
#50 = CARTESIAN_POINT('',(6.329268442684E-08,4.350000896047,
    -9.711110620864));
#51 = CARTESIAN_POINT('',(-2.795310179969,4.350007877001,-9.313833928711
    ));
#52 = CARTESIAN_POINT('',(-5.590836540577,2.375372160342,-8.916589664106
    ));
#53 = CARTESIAN_POINT('',(-6.832796295084,-1.586284261252,
    -8.519226028394));
#54 = CARTESIAN_POINT('',(-4.976131601699,-6.103382793442,
    -8.122144493007));
#55 = CARTESIAN_POINT('',(0.154430146156,-8.62773594692,-7.724580162412)
  );
#56 = CARTESIAN_POINT('',(5.991816852718,-6.210512520226,-7.327641967129
    ));
#57 = CARTESIAN_POINT('',(7.834143063948,-0.796687162503,-6.930077636243
    ));
#58 = CARTESIAN_POINT('',(5.953343328378,3.709649194222,-6.532996101242)
  );
#59 = CARTESIAN_POINT('',(2.273617724558,5.633024229977,-6.135632465245)
  );
#60 = CARTESIAN_POINT('',(-1.099326094737,5.052491922034,-5.738388200776
    ));
#61 = CARTESIAN_POINT('',(-3.07591408081,3.075913966073,-5.34111150858)
  );
#62 = CARTESIAN_POINT('',(-5.052505026681,1.099339742317,-4.943832054948
    ));
#63 = CARTESIAN_POINT('',(-5.632956261304,-2.273680694049,
    -4.546592932636));
#64 = CARTESIAN_POINT('',(-3.709850353868,-5.953183496357,
    -4.149221172477));
#65 = CARTESIAN_POINT('',(0.797095287638,-7.834405966116,-3.752150754919
    ));
#66 = CARTESIAN_POINT('',(6.209919210514,-5.991526026595,-3.354573071445
    ));
#67 = CARTESIAN_POINT('',(8.628360415493,-0.154646047736,-2.957649058093
    ));
#68 = CARTESIAN_POINT('',(6.102908752642,4.976236142255,-2.560071374343)
  );
#69 = CARTESIAN_POINT('',(1.586539297631,6.832765584426,-2.163000957137)
  );
#70 = CARTESIAN_POINT('',(-2.375464665025,5.590841104882,-1.765629196739
    ));
#71 = CARTESIAN_POINT('',(-4.349988978925,2.795309961884,-1.36839007452)
  );
#72 = CARTESIAN_POINT('',(-4.35000089603,6.328950835632E-08,
    -0.971110620873));
#73 = CARTESIAN_POINT('',(-4.350007877004,-2.795310179969,
    -0.573833928705));
#74 = CARTESIAN_POINT('',(-2.375372160397,-5.590836540557,
    -0.176589664095));
#75 = CARTESIAN_POINT('',(1.586284261422,-6.832796295125,0.220773971566)
  );
#76 = CARTESIAN_POINT('',(6.103382793131,-4.9761316017,0.617855507072));
#77 = CARTESIAN_POINT('',(8.627735947332,0.154430146303,1.015419837468)
  );
#78 = CARTESIAN_POINT('',(6.210512519803,5.991816852405,1.412358033023)
  );
#79 = CARTESIAN_POINT('',(0.796687162859,7.834143064315,1.809922363594)
  );
#80 = CARTESIAN_POINT('',(-3.709649194477,5.953343328095,2.2070038989));
#81 = CARTESIAN_POINT('',(-5.633024229826,2.27361772471,2.604367534658)
  );
#82 = CARTESIAN_POINT('',(-5.052491922101,-1.099326094795,3.001611799273
    ));
#83 = CARTESIAN_POINT('',(-3.075913966054,-3.075914080794,3.398888491404
    ));
#84 = CARTESIAN_POINT('',(-1.099339729274,-5.052504884258,3.796167864408
    ));
#85 = CARTESIAN_POINT('',(2.273680635943,-5.632956894334,4.193407425856)
  );
#86 = CARTESIAN_POINT('',(5.953183653726,-3.709848641495,4.590777857729)
  );
#87 = CARTESIAN_POINT('',(7.834405650553,0.797091857401,4.987851187861)
  );
#88 = CARTESIAN_POINT('',(5.991526528051,6.209924657003,5.385423843748)
  );
#89 = CARTESIAN_POINT('',(0.154645396191,8.628353342774,5.782354947834)
  );
#90 = CARTESIAN_POINT('',(-4.976235439596,6.102916377979,6.179924306742)
  );
#91 = CARTESIAN_POINT('',(-6.8327662167,1.586532436631,6.577002928814));
#92 = CARTESIAN_POINT('',(-5.590840631431,-2.375459527187,6.974367893327
    ));
#93 = CARTESIAN_POINT('',(-2.795310253603,-4.349992144859,7.371611718556
    ));
#94 = CARTESIAN_POINT('',(8.113241012353E-08,-4.349999328611,
    7.768888491401));
#95 = CARTESIAN_POINT('',(2.795309888241,-4.350011043054,8.166167864416)
  );
#96 = CARTESIAN_POINT('',(5.590837014045,-2.375367022143,8.563407425837)
  );
#97 = CARTESIAN_POINT('',(6.832795662767,1.58627739953,8.960777857768));
#98 = CARTESIAN_POINT('',(4.976132304501,6.103390419827,9.357851187786)
  );
#99 = CARTESIAN_POINT('',(-0.15443079802,8.627728873044,9.755423843868)
  );
#100 = CARTESIAN_POINT('',(-5.991816350792,6.210517967735,10.15235494768
    ));
#101 = CARTESIAN_POINT('',(-7.834143379997,0.796683731518,
    10.549924306899));
#102 = CARTESIAN_POINT('',(-5.953343170652,-3.709647481385,
    10.947002928682));
#103 = CARTESIAN_POINT('',(-2.273617782847,-5.633024863249,
    11.34436789342));
#104 = CARTESIAN_POINT('',(1.099326107844,-5.052491779513,
    11.741611718501));
#105 = CARTESIAN_POINT('',(3.075914080817,-3.07591396608,12.138888491427
    ));
#106 = CARTESIAN_POINT('',(5.052505026656,-1.099339742286,12.53616794503
    ));
#107 = CARTESIAN_POINT('',(5.63295626136,2.273680693963,12.933407067411)
  );
#108 = CARTESIAN_POINT('',(3.709850353768,5.953183496515,13.33077882745)
  );
#109 = CARTESIAN_POINT('',(-0.797095287471,7.834405965924,
    13.727849245173));
#110 = CARTESIAN_POINT('',(-6.209919210766,5.991526026737,
    14.125426928453));
#111 = CARTESIAN_POINT('',(-8.628360415179,0.154646047696,
    14.522350942012));
#112 = CARTESIAN_POINT('',(-6.102908752948,-4.976236142285,
    14.919928625557));
#113 = CARTESIAN_POINT('',(-1.5865392974,-6.832765584391,15.316999042946
    ));
#114 = CARTESIAN_POINT('',(2.375464664893,-5.590841104894,
    15.714370803207));
#115 = CARTESIAN_POINT('',(4.349988978981,-2.795309961887,
    16.111609925507));
#116 = CARTESIAN_POINT('',(4.350000896014,-6.328661228405E-08,
    16.508889379117));
#117 = PCURVE('',#118,#742);
#118 = ( BOUNDED_SURFACE() B_SPLINE_SURFACE(6,11,(
    (#119,#120,#121,#122,#123,#124,#125,#126,#127,#128,#129,#130,#131
      ,#132,#133,#134,#135,#136,#137,#138,#139,#140,#141,#142,#143,#144
      ,#145,#146,#147,#148,#149,#150,#151,#152,#153,#154,#155,#156,#157
      ,#158,#159,#160,#161,#162,#163,#164,#165,#166,#167,#168,#169,#170
      ,#171,#172,#173,#174,#175,#176,#177,#178,#179,#180,#181,#182,#183
      ,#184,#185,#186,#187,#188,#189,#190,#191,#192,#193,#194,#195,#196
      ,#197,#198,#199,#200,#201,#202,#203,#204,#205,#206,#207)
    ,(#208,#209,#210,#211,#212,#213,#214,#215,#216,#217,#218,#219,#220
      ,#221,#222,#223,#224,#225,#226,#227,#228,#229,#230,#231,#232,#233
      ,#234,#235,#236,#237,#238,#239,#240,#241,#242,#243,#244,#245,#246
      ,#247,#248,#249,#250,#251,#252,#253,#254,#255,#256,#257,#258,#259
      ,#260,#261,#262,#263,#264,#265,#266,#267,#268,#269,#270,#271,#272
      ,#273,#274,#275,#276,#277,#278,#279,#280,#281,#282,#283,#284,#285
      ,#286,#287,#288,#289,#290,#291,#292,#293,#294,#295,#296)
    ,(#297,#298,#299,#300,#301,#302,#303,#304,#305,#306,#307,#308,#309
      ,#310,#311,#312,#313,#314,#315,#316,#317,#318,#319,#320,#321,#322
      ,#323,#324,#325,#326,#327,#328,#329,#330,#331,#332,#333,#334,#335
      ,#336,#337,#338,#339,#340,#341,#342,#343,#344,#345,#346,#347,#348
      ,#349,#350,#351,#352,#353,#354,#355,#356,#357,#358,#359,#360,#361
      ,#362,#363,#364,#365,#366,#367,#368,#369,#370,#371,#372,#373,#374
      ,#375,#376,#377,#378,#379,#380,#381,#382,#383,#384,#385)
    ,(#386,#387,#388,#389,#390,#391,#392,#393,#394,#395,#396,#397,#398
      ,#399,#400,#401,#402,#403,#404,#405,#406,#407,#408,#409,#410,#411
      ,#412,#413,#414,#415,#416,#417,#418,#419,#420,#421,#422,#423,#424
      ,#425,#426,#427,#428,#429,#430,#431,#432,#433,#434,#435,#436,#437
      ,#438,#439,#440,#441,#442,#443,#444,#445,#446,#447,#448,#449,#450
      ,#451,#452,#453,#454,#455,#456,#457,#458,#459,#460,#461,#462,#463
      ,#464,#465,#466,#467,#468,#469,#470,#471,#472,#473,#474)
    ,(#475,#476,#477,#478,#479,#480,#481,#482,#483,#484,#485,#486,#487
      ,#488,#489,#490,#491,#492,#493,#494,#495,#496,#497,#498,#499,#500
      ,#501,#502,#503,#504,#505,#506,#507,#508,#509,#510,#511,#512,#513
      ,#514,#515,#516,#517,#518,#519,#520,#521,#522,#523,#524,#525,#526
      ,#527,#528,#529,#530,#531,#532,#533,#534,#535,#536,#537,#538,#539
      ,#540,#541,#542,#543,#544,#545,#546,#547,#548,#549,#550,#551,#552
      ,#553,#554,#555,#556,#557,#558,#559,#560,#561,#562,#563)
    ,(#564,#565,#566,#567,#568,#569,#570,#571,#572,#573,#574,#575,#576
      ,#577,#578,#579,#580,#581,#582,#583,#584,#585,#586,#587,#588,#589
      ,#590,#591,#592,#593,#594,#595,#596,#597,#598,#599,#600,#601,#602
      ,#603,#604,#605,#606,#607,#608,#609,#610,#611,#612,#613,#614,#615
      ,#616,#617,#618,#619,#620,#621,#622,#623,#624,#625,#626,#627,#628
      ,#629,#630,#631,#632,#633,#634,#635,#636,#637,#638,#639,#640,#641
      ,#642,#643,#644,#645,#646,#647,#648,#649,#650,#651,#652)
    ,(#653,#654,#655,#656,#657,#658,#659,#660,#661,#662,#663,#664,#665
      ,#666,#667,#668,#669,#670,#671,#672,#673,#674,#675,#676,#677,#678
      ,#679,#680,#681,#682,#683,#684,#685,#686,#687,#688,#689,#690,#691
      ,#692,#693,#694,#695,#696,#697,#698,#699,#700,#701,#702,#703,#704
      ,#705,#706,#707,#708,#709,#710,#711,#712,#713,#714,#715,#716,#717
      ,#718,#719,#720,#721,#722,#723,#724,#725,#726,#727,#728,#729,#730
      ,#731,#732,#733,#734,#735,#736,#737,#738,#739,#740,#741
)),.UNSPECIFIED.,.T.,.F.,.F.) B_SPLINE_SURFACE_WITH_KNOTS((1,6,6,1),(12,
    11,11,11,11,11,11,11,12),(-6.28318530718,0.,6.28318530718,
    12.566370614359),(0.,8.310341285442,16.620682570883,24.931023856325,
    33.241365141766,41.551706427208,49.86204771265,58.172388998091,
66.482730283533),.UNSPECIFIED.) GEOMETRIC_REPRESENTATION_ITEM() 
RATIONAL_B_SPLINE_SURFACE((
    (1.669078461068,1.669078461068,1.669078461068,1.669078461068
      ,1.669078461068,1.669078461068,1.669078461068,1.669078461068
      ,1.669078461068,1.669078461068,1.669078461068,1.669078461068
      ,1.669078461068,1.669078461068,1.66907846107,1.669078461066
      ,1.669078461071,1.669078461065,1.66907846107,1.669078461067
      ,1.669078461069,1.669078461068,1.669078461068,1.669078461068
      ,1.669078461068,1.669078461069,1.669078461068,1.669078461069
      ,1.669078461068,1.669078461069,1.669078461068,1.669078461068
      ,1.669078461068,1.669078461068,1.669078461068,1.669078461068
      ,1.66907846107,1.669078461066,1.669078461071,1.669078461065
      ,1.66907846107,1.669078461067,1.669078461069,1.669078461068
      ,1.669078461068,1.669078461068,1.669078461069,1.669078461067
      ,1.669078461071,1.669078461065,1.669078461071,1.669078461066
      ,1.669078461069,1.669078461068,1.669078461068,1.669078461068
      ,1.669078461068,1.669078461069,1.669078461067,1.66907846107
      ,1.669078461066,1.66907846107,1.669078461067,1.669078461069
      ,1.669078461068,1.669078461068,1.669078461068,1.669078461068
      ,1.669078461069,1.669078461067,1.66907846107,1.669078461066
      ,1.669078461071,1.669078461067,1.669078461069,1.669078461068
      ,1.669078461068,1.669078461068,1.669078461068,1.669078461068
      ,1.669078461069,1.669078461067,1.66907846107,1.669078461066
      ,1.66907846107,1.669078461067,1.669078461069,1.669078461068
      ,1.669078461068)
    ,(1.03672962321,1.03672962321,1.03672962321,1.03672962321
      ,1.036729623209,1.03672962321,1.036729623209,1.03672962321
      ,1.036729623209,1.03672962321,1.03672962321,1.03672962321
      ,1.03672962321,1.036729623209,1.03672962321,1.036729623208
      ,1.036729623211,1.036729623208,1.036729623211,1.036729623209
      ,1.03672962321,1.03672962321,1.03672962321,1.03672962321
      ,1.036729623209,1.03672962321,1.036729623209,1.03672962321
      ,1.036729623209,1.03672962321,1.03672962321,1.03672962321
      ,1.03672962321,1.03672962321,1.03672962321,1.036729623209
      ,1.03672962321,1.036729623209,1.036729623211,1.036729623208
      ,1.03672962321,1.036729623209,1.03672962321,1.03672962321
      ,1.03672962321,1.03672962321,1.03672962321,1.036729623209
      ,1.036729623211,1.036729623208,1.036729623212,1.036729623208
      ,1.03672962321,1.036729623209,1.03672962321,1.03672962321
      ,1.03672962321,1.03672962321,1.036729623209,1.036729623211
      ,1.036729623208,1.036729623211,1.036729623209,1.03672962321
      ,1.036729623209,1.03672962321,1.03672962321,1.03672962321
      ,1.03672962321,1.036729623209,1.036729623211,1.036729623208
      ,1.036729623211,1.036729623209,1.03672962321,1.036729623209
      ,1.03672962321,1.03672962321,1.03672962321,1.036729623209
      ,1.03672962321,1.036729623208,1.036729623211,1.036729623208
      ,1.036729623211,1.036729623209,1.03672962321,1.03672962321
      ,1.03672962321)
    ,(1.038346699848,1.038346699847,1.038346699848,1.038346699847
      ,1.038346699848,1.038346699847,1.038346699848,1.038346699847
      ,1.038346699848,1.038346699847,1.038346699848,1.038346699848
      ,1.038346699848,1.038346699847,1.038346699848,1.038346699847
      ,1.038346699848,1.038346699847,1.038346699848,1.038346699847
      ,1.038346699848,1.038346699847,1.038346699848,1.038346699848
      ,1.038346699847,1.038346699848,1.038346699847,1.038346699848
      ,1.038346699847,1.038346699848,1.038346699847,1.038346699848
      ,1.038346699847,1.038346699848,1.038346699848,1.038346699847
      ,1.038346699848,1.038346699846,1.038346699849,1.038346699846
      ,1.038346699849,1.038346699847,1.038346699848,1.038346699847
      ,1.038346699848,1.038346699847,1.038346699848,1.038346699846
      ,1.03834669985,1.038346699845,1.03834669985,1.038346699846
      ,1.038346699849,1.038346699847,1.038346699848,1.038346699848
      ,1.038346699847,1.038346699848,1.038346699847,1.038346699849
      ,1.038346699846,1.038346699849,1.038346699846,1.038346699848
      ,1.038346699847,1.038346699848,1.038346699848,1.038346699847
      ,1.038346699848,1.038346699847,1.038346699849,1.038346699846
      ,1.038346699849,1.038346699846,1.038346699848,1.038346699847
      ,1.038346699848,1.038346699848,1.038346699848,1.038346699847
      ,1.038346699848,1.038346699847,1.038346699849,1.038346699847
      ,1.038346699848,1.038346699847,1.038346699848,1.038346699847
      ,1.038346699848)
    ,(0.853534330196,0.853534330196,0.853534330196,0.853534330196
      ,0.853534330196,0.853534330197,0.853534330196,0.853534330196
      ,0.853534330196,0.853534330196,0.853534330196,0.853534330196
      ,0.853534330196,0.853534330196,0.853534330197,0.853534330195
      ,0.853534330198,0.853534330195,0.853534330197,0.853534330196
      ,0.853534330196,0.853534330196,0.853534330196,0.853534330196
      ,0.853534330196,0.853534330196,0.853534330196,0.853534330196
      ,0.853534330196,0.853534330196,0.853534330196,0.853534330196
      ,0.853534330196,0.853534330196,0.853534330196,0.853534330196
      ,0.853534330197,0.853534330195,0.853534330198,0.853534330195
      ,0.853534330197,0.853534330196,0.853534330196,0.853534330196
      ,0.853534330196,0.853534330196,0.853534330197,0.853534330195
      ,0.853534330198,0.853534330194,0.853534330198,0.853534330195
      ,0.853534330197,0.853534330196,0.853534330196,0.853534330196
      ,0.853534330196,0.853534330196,0.853534330196,0.853534330197
      ,0.853534330195,0.853534330197,0.853534330196,0.853534330196
      ,0.853534330196,0.853534330196,0.853534330196,0.853534330196
      ,0.853534330196,0.853534330195,0.853534330197,0.853534330195
      ,0.853534330197,0.853534330195,0.853534330197,0.853534330196
      ,0.853534330196,0.853534330196,0.853534330196,0.853534330196
      ,0.853534330197,0.853534330195,0.853534330197,0.853534330195
      ,0.853534330197,0.853534330196,0.853534330196,0.853534330196
      ,0.853534330196)
    ,(1.038346699848,1.038346699847,1.038346699848,1.038346699847
      ,1.038346699848,1.038346699847,1.038346699848,1.038346699847
      ,1.038346699848,1.038346699847,1.038346699848,1.038346699848
      ,1.038346699848,1.038346699847,1.038346699848,1.038346699847
      ,1.038346699848,1.038346699847,1.038346699848,1.038346699847
      ,1.038346699848,1.038346699847,1.038346699848,1.038346699848
      ,1.038346699847,1.038346699848,1.038346699847,1.038346699848
      ,1.038346699847,1.038346699848,1.038346699847,1.038346699848
      ,1.038346699847,1.038346699848,1.038346699848,1.038346699847
      ,1.038346699848,1.038346699846,1.038346699849,1.038346699846
      ,1.038346699849,1.038346699847,1.038346699848,1.038346699847
      ,1.038346699848,1.038346699847,1.038346699848,1.038346699846
      ,1.03834669985,1.038346699845,1.03834669985,1.038346699846
      ,1.038346699849,1.038346699847,1.038346699848,1.038346699848
      ,1.038346699847,1.038346699848,1.038346699847,1.038346699849
      ,1.038346699846,1.038346699849,1.038346699846,1.038346699848
      ,1.038346699847,1.038346699848,1.038346699848,1.038346699847
      ,1.038346699848,1.038346699847,1.038346699849,1.038346699846
      ,1.038346699849,1.038346699846,1.038346699848,1.038346699847
      ,1.038346699848,1.038346699848,1.038346699848,1.038346699847
      ,1.038346699848,1.038346699847,1.038346699849,1.038346699847
      ,1.038346699848,1.038346699847,1.038346699848,1.038346699847
      ,1.038346699848)
    ,(1.03672962321,1.03672962321,1.03672962321,1.03672962321
      ,1.03672962321,1.036729623209,1.03672962321,1.03672962321
      ,1.03672962321,1.03672962321,1.03672962321,1.03672962321
      ,1.03672962321,1.036729623209,1.03672962321,1.036729623209
      ,1.036729623211,1.036729623209,1.03672962321,1.036729623209
      ,1.03672962321,1.03672962321,1.03672962321,1.03672962321
      ,1.03672962321,1.03672962321,1.036729623209,1.03672962321
      ,1.036729623209,1.03672962321,1.03672962321,1.03672962321
      ,1.03672962321,1.03672962321,1.03672962321,1.036729623209
      ,1.03672962321,1.036729623209,1.036729623211,1.036729623208
      ,1.03672962321,1.036729623209,1.03672962321,1.03672962321
      ,1.03672962321,1.03672962321,1.03672962321,1.036729623209
      ,1.036729623211,1.036729623208,1.036729623211,1.036729623208
      ,1.03672962321,1.036729623209,1.03672962321,1.03672962321
      ,1.03672962321,1.03672962321,1.036729623209,1.036729623211
      ,1.036729623208,1.036729623211,1.036729623208,1.03672962321
      ,1.036729623209,1.03672962321,1.03672962321,1.03672962321
      ,1.03672962321,1.036729623209,1.036729623211,1.036729623208
      ,1.036729623211,1.036729623208,1.03672962321,1.036729623209
      ,1.03672962321,1.03672962321,1.03672962321,1.036729623209
      ,1.03672962321,1.036729623209,1.036729623211,1.036729623209
      ,1.03672962321,1.036729623209,1.03672962321,1.03672962321
      ,1.03672962321)
    ,(1.669078461068,1.669078461068,1.669078461068,1.669078461068
      ,1.669078461068,1.669078461068,1.669078461068,1.669078461068
      ,1.669078461068,1.669078461068,1.669078461068,1.669078461068
      ,1.669078461068,1.669078461068,1.66907846107,1.669078461066
      ,1.669078461071,1.669078461065,1.66907846107,1.669078461067
      ,1.669078461069,1.669078461068,1.669078461068,1.669078461068
      ,1.669078461068,1.669078461069,1.669078461068,1.669078461069
      ,1.669078461068,1.669078461069,1.669078461068,1.669078461068
      ,1.669078461068,1.669078461068,1.669078461068,1.669078461068
      ,1.66907846107,1.669078461066,1.669078461071,1.669078461065
      ,1.66907846107,1.669078461067,1.669078461069,1.669078461068
      ,1.669078461068,1.669078461068,1.669078461069,1.669078461067
      ,1.669078461071,1.669078461065,1.669078461071,1.669078461066
      ,1.669078461069,1.669078461068,1.669078461068,1.669078461068
      ,1.669078461068,1.669078461069,1.669078461067,1.66907846107
      ,1.669078461066,1.66907846107,1.669078461067,1.669078461069
      ,1.669078461068,1.669078461068,1.669078461068,1.669078461068
      ,1.669078461069,1.669078461067,1.66907846107,1.669078461066
      ,1.669078461071,1.669078461067,1.669078461069,1.669078461068
      ,1.669078461068,1.669078461068,1.669078461068,1.669078461068
      ,1.669078461069,1.669078461067,1.66907846107,1.669078461066
      ,1.66907846107,1.669078461067,1.669078461069,1.669078461068
,1.669078461068))) REPRESENTATION_ITEM('') SURFACE() );
#119 = CARTESIAN_POINT('',(4.349999328634,8.113227267792E-08,
    -18.45111150858));
#120 = CARTESIAN_POINT('',(4.350011153015,2.795309979723,-18.05383205492
    ));
#121 = CARTESIAN_POINT('',(2.375366533344,5.590836607521,-17.65659293269
    ));
#122 = CARTESIAN_POINT('',(-1.58627607725,6.832796762315,-17.25922117237
    ));
#123 = CARTESIAN_POINT('',(-6.103393068736,4.976130102051,
    -16.86215075505));
#124 = CARTESIAN_POINT('',(-8.627724666996,-0.154427301215,
    -16.46457307129));
#125 = CARTESIAN_POINT('',(-6.210523429761,-5.991820891468,
    -16.06764905823));
#126 = CARTESIAN_POINT('',(-0.796677842672,-7.834138484707,
    -15.67007137422));
#127 = CARTESIAN_POINT('',(3.709642182837,-5.953347575154,
    -15.27300095722));
#128 = CARTESIAN_POINT('',(5.633028831008,-2.273614484597,
    -14.87562919668));
#129 = CARTESIAN_POINT('',(5.052489334609,1.099324075484,-14.47839007454
    ));
#130 = CARTESIAN_POINT('',(3.075915176516,3.075915087006,-14.08111062086
    ));
#131 = CARTESIAN_POINT('',(1.099337297391,5.052502994306,-13.68383384801
    ));
#132 = CARTESIAN_POINT('',(-2.27367672625,5.632959559593,-13.28659002271
    ));
#133 = CARTESIAN_POINT('',(-5.953188794978,3.709845949321,
    -12.88922505842));
#134 = CARTESIAN_POINT('',(-7.834400077112,-0.79709039239,
    -12.49214643598));
#135 = CARTESIAN_POINT('',(-5.991531488927,-6.209923750946,
    -12.09457707742));
#136 = CARTESIAN_POINT('',(-0.154641841244,-8.628356919133,
    -11.69764597318));
#137 = CARTESIAN_POINT('',(4.976233492875,-6.102910954598,
    -11.30007331725));
#138 = CARTESIAN_POINT('',(6.832766907065,-1.586538198453,
    -10.90299998722));
#139 = CARTESIAN_POINT('',(5.590840615889,2.375464258691,-10.5056295553)
  );
#140 = CARTESIAN_POINT('',(2.79531007192,4.349989070339,-10.10838999384)
  );
#141 = CARTESIAN_POINT('',(6.329268442684E-08,4.350000896047,
    -9.711110620864));
#142 = CARTESIAN_POINT('',(-2.795310179969,4.350007877001,
    -9.313833928711));
#143 = CARTESIAN_POINT('',(-5.590836540577,2.375372160342,
    -8.916589664106));
#144 = CARTESIAN_POINT('',(-6.832796295084,-1.586284261252,
    -8.519226028394));
#145 = CARTESIAN_POINT('',(-4.976131601699,-6.103382793442,
    -8.122144493007));
#146 = CARTESIAN_POINT('',(0.154430146156,-8.62773594692,-7.724580162412
    ));
#147 = CARTESIAN_POINT('',(5.991816852718,-6.210512520226,
    -7.327641967129));
#148 = CARTESIAN_POINT('',(7.834143063948,-0.796687162503,
    -6.930077636243));
#149 = CARTESIAN_POINT('',(5.953343328378,3.709649194222,-6.532996101242
    ));
#150 = CARTESIAN_POINT('',(2.273617724558,5.633024229977,-6.135632465245
    ));
#151 = CARTESIAN_POINT('',(-1.099326094737,5.052491922034,
    -5.738388200776));
#152 = CARTESIAN_POINT('',(-3.07591408081,3.075913966073,-5.34111150858)
  );
#153 = CARTESIAN_POINT('',(-5.052505026681,1.099339742317,
    -4.943832054948));
#154 = CARTESIAN_POINT('',(-5.632956261304,-2.273680694049,
    -4.546592932636));
#155 = CARTESIAN_POINT('',(-3.709850353868,-5.953183496357,
    -4.149221172477));
#156 = CARTESIAN_POINT('',(0.797095287638,-7.834405966116,
    -3.752150754919));
#157 = CARTESIAN_POINT('',(6.209919210514,-5.991526026595,
    -3.354573071445));
#158 = CARTESIAN_POINT('',(8.628360415493,-0.154646047736,
    -2.957649058093));
#159 = CARTESIAN_POINT('',(6.102908752642,4.976236142255,-2.560071374343
    ));
#160 = CARTESIAN_POINT('',(1.586539297631,6.832765584426,-2.163000957137
    ));
#161 = CARTESIAN_POINT('',(-2.375464665025,5.590841104882,
    -1.765629196739));
#162 = CARTESIAN_POINT('',(-4.349988978925,2.795309961884,-1.36839007452
    ));
#163 = CARTESIAN_POINT('',(-4.35000089603,6.328950835632E-08,
    -0.971110620873));
#164 = CARTESIAN_POINT('',(-4.350007877004,-2.795310179969,
    -0.573833928705));
#165 = CARTESIAN_POINT('',(-2.375372160397,-5.590836540557,
    -0.176589664095));
#166 = CARTESIAN_POINT('',(1.586284261422,-6.832796295125,0.220773971566
    ));
#167 = CARTESIAN_POINT('',(6.103382793131,-4.9761316017,0.617855507072)
  );
#168 = CARTESIAN_POINT('',(8.627735947332,0.154430146303,1.015419837468)
  );
#169 = CARTESIAN_POINT('',(6.210512519803,5.991816852405,1.412358033023)
  );
#170 = CARTESIAN_POINT('',(0.796687162859,7.834143064315,1.809922363594)
  );
#171 = CARTESIAN_POINT('',(-3.709649194477,5.953343328095,2.2070038989)
  );
#172 = CARTESIAN_POINT('',(-5.633024229826,2.27361772471,2.604367534658)
  );
#173 = CARTESIAN_POINT('',(-5.052491922101,-1.099326094795,
    3.001611799273));
#174 = CARTESIAN_POINT('',(-3.075913966054,-3.075914080794,
    3.398888491404));
#175 = CARTESIAN_POINT('',(-1.099339729274,-5.052504884258,
    3.796167864408));
#176 = CARTESIAN_POINT('',(2.273680635943,-5.632956894334,4.193407425856
    ));
#177 = CARTESIAN_POINT('',(5.953183653726,-3.709848641495,4.590777857729
    ));
#178 = CARTESIAN_POINT('',(7.834405650553,0.797091857401,4.987851187861)
  );
#179 = CARTESIAN_POINT('',(5.991526528051,6.209924657003,5.385423843748)
  );
#180 = CARTESIAN_POINT('',(0.154645396191,8.628353342774,5.782354947834)
  );
#181 = CARTESIAN_POINT('',(-4.976235439596,6.102916377979,6.179924306742
    ));
#182 = CARTESIAN_POINT('',(-6.8327662167,1.586532436631,6.577002928814)
  );
#183 = CARTESIAN_POINT('',(-5.590840631431,-2.375459527187,
    6.974367893327));
#184 = CARTESIAN_POINT('',(-2.795310253603,-4.349992144859,
    7.371611718556));
#185 = CARTESIAN_POINT('',(8.113241012353E-08,-4.349999328611,
    7.768888491401));
#186 = CARTESIAN_POINT('',(2.795309888241,-4.350011043054,8.166167864416
    ));
#187 = CARTESIAN_POINT('',(5.590837014045,-2.375367022143,8.563407425837
    ));
#188 = CARTESIAN_POINT('',(6.832795662767,1.58627739953,8.960777857768)
  );
#189 = CARTESIAN_POINT('',(4.976132304501,6.103390419827,9.357851187786)
  );
#190 = CARTESIAN_POINT('',(-0.15443079802,8.627728873044,9.755423843868)
  );
#191 = CARTESIAN_POINT('',(-5.991816350792,6.210517967735,10.15235494768
    ));
#192 = CARTESIAN_POINT('',(-7.834143379997,0.796683731518,
    10.549924306899));
#193 = CARTESIAN_POINT('',(-5.953343170652,-3.709647481385,
    10.947002928682));
#194 = CARTESIAN_POINT('',(-2.273617782847,-5.633024863249,
    11.34436789342));
#195 = CARTESIAN_POINT('',(1.099326107844,-5.052491779513,
    11.741611718501));
#196 = CARTESIAN_POINT('',(3.075914080817,-3.07591396608,12.138888491427
    ));
#197 = CARTESIAN_POINT('',(5.052505026656,-1.099339742286,12.53616794503
    ));
#198 = CARTESIAN_POINT('',(5.63295626136,2.273680693963,12.933407067411)
  );
#199 = CARTESIAN_POINT('',(3.709850353768,5.953183496515,13.33077882745)
  );
#200 = CARTESIAN_POINT('',(-0.797095287471,7.834405965924,
    13.727849245173));
#201 = CARTESIAN_POINT('',(-6.209919210766,5.991526026737,
    14.125426928453));
#202 = CARTESIAN_POINT('',(-8.628360415179,0.154646047696,
    14.522350942012));
#203 = CARTESIAN_POINT('',(-6.102908752948,-4.976236142285,
    14.919928625557));
#204 = CARTESIAN_POINT('',(-1.5865392974,-6.832765584391,15.316999042946
    ));
#205 = CARTESIAN_POINT('',(2.375464664893,-5.590841104894,
    15.714370803207));
#206 = CARTESIAN_POINT('',(4.349988978981,-2.795309961887,
    16.111609925507));
#207 = CARTESIAN_POINT('',(4.350000896014,-6.328661228405E-08,
    16.508889379117));
#208 = CARTESIAN_POINT('',(4.350000009876,1.272977423472E-07,
    -17.53726281702));
#209 = CARTESIAN_POINT('',(4.350000628388,2.795309989738,-17.13998336335
    ));
#210 = CARTESIAN_POINT('',(2.375412605205,5.590838681106,-16.74274424116
    ));
#211 = CARTESIAN_POINT('',(-1.586399992251,6.832781984317,
    -16.34537248074));
#212 = CARTESIAN_POINT('',(-6.103165173047,4.976179854921,
    -15.94830206356));
#213 = CARTESIAN_POINT('',(-8.62802368421,-0.154530331495,-15.5507243797
    ));
#214 = CARTESIAN_POINT('',(-6.210238978652,-5.991682152791,
    -15.15380036661));
#215 = CARTESIAN_POINT('',(-0.796874149219,-7.834264248096,
    -14.75622268275));
#216 = CARTESIAN_POINT('',(3.709740157634,-5.953270249666,
    -14.35915226558));
#217 = CARTESIAN_POINT('',(5.63299464136,-2.273645537272,-13.96178050515
    ));
#218 = CARTESIAN_POINT('',(5.052496638886,1.099331496168,-13.56454138297
    ));
#219 = CARTESIAN_POINT('',(3.075914582609,3.075914558387,-13.1672619293)
  );
#220 = CARTESIAN_POINT('',(1.099331954952,5.052497666031,-12.76998515643
    ));
#221 = CARTESIAN_POINT('',(-2.273649033674,5.63299018466,-12.37274133118
    ));
#222 = CARTESIAN_POINT('',(-5.953261400819,3.709752444233,
    -11.97537636679));
#223 = CARTESIAN_POINT('',(-7.834279185541,-0.796899139626,
    -11.57829774449));
#224 = CARTESIAN_POINT('',(-5.991665365852,-6.210203334714,
    -11.18072838584));
#225 = CARTESIAN_POINT('',(-0.154542431596,-8.628061303333,
    -10.78379728156));
#226 = CARTESIAN_POINT('',(4.976185894181,-6.103136409616,
    -10.38622462578));
#227 = CARTESIAN_POINT('',(6.832780368688,-1.586415382053,
    -9.989151295588));
#228 = CARTESIAN_POINT('',(5.590838819052,2.375418546729,-9.591780863774
    ));
#229 = CARTESIAN_POINT('',(2.795309894792,4.349999387648,-9.194541302272
    ));
#230 = CARTESIAN_POINT('',(1.712695696376E-08,4.350000102299,
    -8.7972619293));
#231 = CARTESIAN_POINT('',(-2.7953102848,4.350000426477,-8.399985237138)
  );
#232 = CARTESIAN_POINT('',(-5.590838192825,2.375412975834,
    -8.002740972574));
#233 = CARTESIAN_POINT('',(-6.832782656715,-1.586400579846,
    -7.605377336764));
#234 = CARTESIAN_POINT('',(-4.976179071774,-6.103164356797,
    -7.208295801514));
#235 = CARTESIAN_POINT('',(0.154529551957,-8.628024683325,
    -6.810731470827));
#236 = CARTESIAN_POINT('',(5.991682820631,-6.210237901675,-6.41379327551
    ));
#237 = CARTESIAN_POINT('',(7.834263753088,-0.796875166328,
    -6.016228944775));
#238 = CARTESIAN_POINT('',(5.953270568436,3.709740991745,-5.619147409599
    ));
#239 = CARTESIAN_POINT('',(2.273645358395,5.632994055037,-5.221783773718
    ));
#240 = CARTESIAN_POINT('',(-1.099331408768,5.052496985568,
    -4.824539509203));
#241 = CARTESIAN_POINT('',(-3.075914595157,3.075914415132,
    -4.427262817016));
#242 = CARTESIAN_POINT('',(-5.05249759176,1.099332293232,-4.029983363376
    ));
#243 = CARTESIAN_POINT('',(-5.632990305196,-2.27364958266,
    -3.632744241104));
#244 = CARTESIAN_POINT('',(-3.709752283257,-5.953260667703,
    -3.235372480849));
#245 = CARTESIAN_POINT('',(0.796898960686,-7.834280000333,
    -2.838302063425));
#246 = CARTESIAN_POINT('',(6.21020350073,-5.991664610113,-2.440724379861
    ));
#247 = CARTESIAN_POINT('',(8.628061175447,-0.154543013561,
    -2.043800366474));
#248 = CARTESIAN_POINT('',(6.103136490186,4.9761862607,-1.646222682875)
  );
#249 = CARTESIAN_POINT('',(1.586415341821,6.832780185723,-1.249152265494
    ));
#250 = CARTESIAN_POINT('',(-2.375418531853,5.590838886691,
    -0.851780505212));
#251 = CARTESIAN_POINT('',(-4.349999390996,2.795309879573,
    -0.454541382947));
#252 = CARTESIAN_POINT('',(-4.350000102298,1.712534655751E-08,
    -5.726192930969E-02));
#253 = CARTESIAN_POINT('',(-4.350000426479,-2.795310284799,
    0.340014762868));
#254 = CARTESIAN_POINT('',(-2.375412975832,-5.590838192821,
    0.737259027437));
#255 = CARTESIAN_POINT('',(1.586400579853,-6.832782656729,1.134622663194
    ));
#256 = CARTESIAN_POINT('',(6.103164356763,-4.976179071754,1.531704198567
    ));
#257 = CARTESIAN_POINT('',(8.628024683396,0.154529551947,1.929268529051)
  );
#258 = CARTESIAN_POINT('',(6.210237901587,5.991682820625,2.326206724644)
  );
#259 = CARTESIAN_POINT('',(0.796875166404,7.834263753096,2.723771055061)
  );
#260 = CARTESIAN_POINT('',(-3.709740991797,5.953270568435,3.120852590543
    ));
#261 = CARTESIAN_POINT('',(-5.632994055011,2.273645358392,3.518216226185
    ));
#262 = CARTESIAN_POINT('',(-5.052496985577,-1.099331408766,
    3.915460490846));
#263 = CARTESIAN_POINT('',(-3.07591441513,-3.075914595158,4.312737182968
    ));
#264 = CARTESIAN_POINT('',(-1.099332280113,-5.052497583356,4.71001655598
    ));
#265 = CARTESIAN_POINT('',(2.27364952434,-5.632990342534,5.107256117387)
  );
#266 = CARTESIAN_POINT('',(5.953260825473,-3.709752182274,5.504626549358
    ));
#267 = CARTESIAN_POINT('',(7.834279684269,0.79689875842,5.901699879354)
  );
#268 = CARTESIAN_POINT('',(5.991665111964,6.210203821861,6.299272535335)
  );
#269 = CARTESIAN_POINT('',(0.154542361869,8.628060758454,6.696203639451)
  );
#270 = CARTESIAN_POINT('',(-4.976185558091,6.103136939754,7.093772998212
    ));
#271 = CARTESIAN_POINT('',(-6.832780817907,1.586414937304,7.490851620455
    ));
#272 = CARTESIAN_POINT('',(-5.590838413281,-2.375418228916,
    7.888216584855));
#273 = CARTESIAN_POINT('',(-2.795310171288,-4.349999577674,
    8.285460410129));
#274 = CARTESIAN_POINT('',(1.272997836033E-07,-4.350000009874,
    8.682737182965));
#275 = CARTESIAN_POINT('',(2.795309993073,-4.350000613166,9.080016555988
    ));
#276 = CARTESIAN_POINT('',(5.59083866627,-2.375412672856,9.477256117369)
  );
#277 = CARTESIAN_POINT('',(6.832782024463,1.586400175243,9.874626549397)
  );
#278 = CARTESIAN_POINT('',(4.976179774482,6.103164806485,10.271699879279
    ));
#279 = CARTESIAN_POINT('',(-0.154530203756,8.628024266215,
    10.669272535455));
#280 = CARTESIAN_POINT('',(-5.991682318688,6.210238222899,
    11.066203639297));
#281 = CARTESIAN_POINT('',(-7.83426406922,0.796874963999,11.46377299837)
  );
#282 = CARTESIAN_POINT('',(-5.953270410621,-3.70974089073,
    11.860851620323));
#283 = CARTESIAN_POINT('',(-2.27364541674,-5.632994092387,
    12.258216584947));
#284 = CARTESIAN_POINT('',(1.099331421898,-5.052496977161,
    12.655460410074));
#285 = CARTESIAN_POINT('',(3.075914595157,-3.075914415133,13.05273718299
    ));
#286 = CARTESIAN_POINT('',(5.052497591761,-1.099332293228,
    13.450016636602));
#287 = CARTESIAN_POINT('',(5.632990305189,2.273649582651,13.847255758945
    ));
#288 = CARTESIAN_POINT('',(3.709752283271,5.953260667717,14.244627519074
    ));
#289 = CARTESIAN_POINT('',(-0.796898960704,7.834280000317,
    14.641697936675));
#290 = CARTESIAN_POINT('',(-6.210203500716,5.99166461013,15.039275620028
    ));
#291 = CARTESIAN_POINT('',(-8.628061175448,0.154543013544,15.43619963364
    ));
#292 = CARTESIAN_POINT('',(-6.103136490197,-4.976186260685,
    15.833777317019));
#293 = CARTESIAN_POINT('',(-1.586415341806,-6.832780185736,
    16.230847734592));
#294 = CARTESIAN_POINT('',(2.375418531842,-5.590838886682,
    16.628219494732));
#295 = CARTESIAN_POINT('',(4.349999391,-2.795309879577,17.02545861708));
#296 = CARTESIAN_POINT('',(4.350000102298,-1.712387442954E-08,
    17.422738070681));
#297 = CARTESIAN_POINT('',(3.219998602889,-1.335563207805E-07,
    -17.40604885542));
#298 = CARTESIAN_POINT('',(3.219997784306,2.069159381575,-17.00878322146
    ));
#299 = CARTESIAN_POINT('',(1.758347986047,4.138571711167,-16.61147505601
    ));
#300 = CARTESIAN_POINT('',(-1.174270504758,5.057624499296,
    -16.21430676395));
#301 = CARTESIAN_POINT('',(-4.517832555771,3.683906701386,
    -15.81682069096));
#302 = CARTESIAN_POINT('',(-6.386559271954,-0.114919057023,
    -15.41986955506));
#303 = CARTESIAN_POINT('',(-4.597193558815,-4.434696709052,
    -15.02222909193));
#304 = CARTESIAN_POINT('',(-0.589706619616,-5.799525794336,
    -14.62527795603));
#305 = CARTESIAN_POINT('',(2.745961640353,-4.406602819067,
    -14.22779188304));
#306 = CARTESIAN_POINT('',(4.16974632049,-1.683077525576,-13.83062359098
    ));
#307 = CARTESIAN_POINT('',(3.740000122388,0.813766699888,-13.43331542553
    ));
#308 = CARTESIAN_POINT('',(2.276882749859,2.27688277637,-13.03604979157)
  );
#309 = CARTESIAN_POINT('',(0.813766026626,3.739998851703,-12.63878133056
    ));
#310 = CARTESIAN_POINT('',(-1.68307296646,4.169751982375,-12.24147812472
    ));
#311 = CARTESIAN_POINT('',(-4.406614376118,2.745945841308,
    -11.84430266592));
#312 = CARTESIAN_POINT('',(-5.799506380845,-0.589674513304,
    -11.44682524562));
#313 = CARTESIAN_POINT('',(-4.434718458279,-4.597239519278,
    -11.04986533041));
#314 = CARTESIAN_POINT('',(-0.114903291932,-6.386510774393,
    -10.65223234524));
#315 = CARTESIAN_POINT('',(3.683898887625,-4.517869617466,
    -10.25527590703));
#316 = CARTESIAN_POINT('',(5.057626622248,-1.174250613133,
    -9.857792905938));
#317 = CARTESIAN_POINT('',(4.138571508239,1.758340358038,-9.46062321281)
  );
#318 = CARTESIAN_POINT('',(2.069159478923,3.219999402092,-9.063315510634
    ));
#319 = CARTESIAN_POINT('',(-1.874697175275E-08,3.21999848353,
    -8.666049791572));
#320 = CARTESIAN_POINT('',(-2.069159071825,3.219998042859,
    -8.268781245467));
#321 = CARTESIAN_POINT('',(-4.138572219825,1.758347517186,
    -7.871478502887));
#322 = CARTESIAN_POINT('',(-5.057623807143,-1.17426977237,
    -7.474301643081));
#323 = CARTESIAN_POINT('',(-3.683907493358,-4.517833556927,
    -7.076827294529));
#324 = CARTESIAN_POINT('',(0.114919825272,-6.386558065762,
    -6.679862077241));
#325 = CARTESIAN_POINT('',(4.434696074654,-4.597194840465,
    -6.282236569734));
#326 = CARTESIAN_POINT('',(5.799526241022,-0.589705423801,
    -5.885271352519));
#327 = CARTESIAN_POINT('',(4.406602550677,2.745960669058,-5.487797003862
    ));
#328 = CARTESIAN_POINT('',(1.683077663463,4.169746998385,-5.090620144147
    ));
#329 = CARTESIAN_POINT('',(-0.813766760786,3.739999723537,
    -4.693317401512));
#330 = CARTESIAN_POINT('',(-2.276882753075,2.276882941952,
    -4.296048855431));
#331 = CARTESIAN_POINT('',(-3.739998898754,0.813765638624,
    -3.898783221435));
#332 = CARTESIAN_POINT('',(-4.16975190602,-1.68307233678,-3.501475056103
    ));
#333 = CARTESIAN_POINT('',(-2.745945943265,-4.406615216997,
    -3.104306763764));
#334 = CARTESIAN_POINT('',(0.589674626612,-5.799505446276,
    -2.706820691267));
#335 = CARTESIAN_POINT('',(4.597239414182,-4.434719325125,-2.30986955469
    ));
#336 = CARTESIAN_POINT('',(6.386510855329,-0.114902624396,
    -1.912229092299));
#337 = CARTESIAN_POINT('',(4.517869566484,3.683898467205,-1.515277955744
    ));
#338 = CARTESIAN_POINT('',(1.174250638591,5.057626832123,-1.117791883224
    ));
#339 = CARTESIAN_POINT('',(-1.758340367455,4.138571430652,
    -0.720623590894));
#340 = CARTESIAN_POINT('',(-3.21999939997,2.06915949638,-0.323315425567)
  );
#341 = CARTESIAN_POINT('',(-3.219998483531,-1.874481744824E-08,
    7.395020843834E-02));
#342 = CARTESIAN_POINT('',(-3.219998042858,-2.069159071826,
    0.471218754536));
#343 = CARTESIAN_POINT('',(-1.758347517185,-4.138572219829,
    0.868521497057));
#344 = CARTESIAN_POINT('',(1.174269772367,-5.057623807132,1.265698357086
    ));
#345 = CARTESIAN_POINT('',(4.517833556931,-3.683907493371,1.663172705152
    ));
#346 = CARTESIAN_POINT('',(6.386558065747,0.114919825285,2.060137923205)
  );
#347 = CARTESIAN_POINT('',(4.597194840507,4.434696074645,2.457763429785)
  );
#348 = CARTESIAN_POINT('',(0.589705423741,5.799526241022,2.854728647888)
  );
#349 = CARTESIAN_POINT('',(-2.745960669005,4.406602550681,3.252202995867
    ));
#350 = CARTESIAN_POINT('',(-4.169746998416,1.683077663461,3.649379855994
    ));
#351 = CARTESIAN_POINT('',(-3.739999723523,-0.813766760786,
    4.046682598434));
#352 = CARTESIAN_POINT('',(-2.276882941955,-2.276882753075,
    4.443951144582));
#353 = CARTESIAN_POINT('',(-0.813765652459,-3.739998909609,
    4.841216863601));
#354 = CARTESIAN_POINT('',(1.683072398279,-4.169751857785,5.238524565915
    ));
#355 = CARTESIAN_POINT('',(4.406615050632,-2.745946073724,5.635694258734
    ));
#356 = CARTESIAN_POINT('',(5.799505779555,0.589674887909,6.033177260364)
  );
#357 = CARTESIAN_POINT('',(4.434718795919,4.597238999358,6.430133697848)
  );
#358 = CARTESIAN_POINT('',(0.114903311649,6.386511393963,6.827766683811)
  );
#359 = CARTESIAN_POINT('',(-3.68389920817,4.517868985791,7.224726598341)
  );
#360 = CARTESIAN_POINT('',(-5.057626165432,1.174251161065,7.622204019083
    ));
#361 = CARTESIAN_POINT('',(-4.138571929894,-1.758340758704,
    8.019379477686));
#362 = CARTESIAN_POINT('',(-2.06915918875,-3.219999158883,8.416682683566
    ));
#363 = CARTESIAN_POINT('',(-1.335585078088E-07,-3.219998602891,
    8.813951144588));
#364 = CARTESIAN_POINT('',(2.069159379465,-3.219997801764,9.211216863586
    ));
#365 = CARTESIAN_POINT('',(4.138571720556,-1.758347908453,9.608524565947
    ));
#366 = CARTESIAN_POINT('',(5.057624473882,1.174270294874,10.005694258676
    ));
#367 = CARTESIAN_POINT('',(3.683906752324,4.517832976199,10.403177260449
    ));
#368 = CARTESIAN_POINT('',(-0.114919137938,6.386558604419,
    10.800133697744));
#369 = CARTESIAN_POINT('',(-4.434696603944,4.597194425653,11.19776668392
    ));
#370 = CARTESIAN_POINT('',(-5.799525907671,0.58970568506,11.594726598236
    ));
#371 = CARTESIAN_POINT('',(-4.406602717092,-2.745960799486,
    11.992204019176));
#372 = CARTESIAN_POINT('',(-1.683077601937,-4.169746950161,
    12.389379477614));
#373 = CARTESIAN_POINT('',(0.81376674694,-3.739999734391,12.786682683613
    ));
#374 = CARTESIAN_POINT('',(2.276882753076,-2.27688294195,13.183951144564
    ));
#375 = CARTESIAN_POINT('',(3.739998898753,-0.81376563863,13.581216778592
    ));
#376 = CARTESIAN_POINT('',(4.169751906024,1.683072336794,13.978524943822
    ));
#377 = CARTESIAN_POINT('',(2.745945943259,4.406615216973,14.375693236394
    ));
#378 = CARTESIAN_POINT('',(-0.589674626613,5.79950544631,14.773179308477
    ));
#379 = CARTESIAN_POINT('',(-4.597239414166,4.434719325086,
    15.170130445641));
#380 = CARTESIAN_POINT('',(-6.386510855365,0.114902624433,
    15.567770907358));
#381 = CARTESIAN_POINT('',(-4.517869566441,-3.683898467235,
    15.964722044539));
#382 = CARTESIAN_POINT('',(-1.174250638624,-5.057626832102,
    16.362208116591));
#383 = CARTESIAN_POINT('',(1.758340367471,-4.138571430664,
    16.759376409201));
#384 = CARTESIAN_POINT('',(3.219999399965,-2.069159496374,
    17.156684574397));
#385 = CARTESIAN_POINT('',(3.219998483533,1.874308491745E-08,
    17.553950208448));
#386 = CARTESIAN_POINT('',(2.28798502208,-4.069671036833E-07,
    -18.45110997142));
#387 = CARTESIAN_POINT('',(2.2879971601,1.470238341012,-18.05385573582)
  );
#388 = CARTESIAN_POINT('',(1.249341737915,2.940755284487,-17.6564906242)
  );
#389 = CARTESIAN_POINT('',(-0.834194258516,3.59351279709,-17.2594901507)
  );
#390 = CARTESIAN_POINT('',(-3.210555271218,2.61799124155,-16.86166124925
    ));
#391 = CARTESIAN_POINT('',(-4.53744673713,-8.211808879121E-02,
    -16.46522688327));
#392 = CARTESIAN_POINT('',(-3.267130433212,-3.150687344248,
    -16.06699550012));
#393 = CARTESIAN_POINT('',(-0.418589381198,-4.121137202217,
    -15.67056113385));
#394 = CARTESIAN_POINT('',(1.950924083833,-3.131026133941,
    -15.27273223277));
#395 = CARTESIAN_POINT('',(2.96291836096,-1.195944341941,-14.87573175901
    ));
#396 = CARTESIAN_POINT('',(2.65745822589,0.578226634535,-14.47836664751)
  );
#397 = CARTESIAN_POINT('',(1.617850839712,1.617850825674,-14.08111241187
    ));
#398 = CARTESIAN_POINT('',(0.578241134746,2.657471002368,-13.68385080641
    ));
#399 = CARTESIAN_POINT('',(-1.196007275735,2.962850571812,
    -13.28649862408));
#400 = CARTESIAN_POINT('',(-3.130865306913,1.951126769327,-12.8894794675
    ));
#401 = CARTESIAN_POINT('',(-4.121400737155,-0.418999285351,
    -12.49167312286));
#402 = CARTESIAN_POINT('',(-3.150396834423,-3.26653188317,
    -12.09521586997));
#403 = CARTESIAN_POINT('',(-8.233482173265E-02,-4.538077643514,
    -11.69700398125));
#404 = CARTESIAN_POINT('',(2.618094860476,-3.21007449222,-11.30055579228
    ));
#405 = CARTESIAN_POINT('',(3.593482364946,-0.834456644326,
    -10.90273489937));
#406 = CARTESIAN_POINT('',(2.940759684913,1.249438749885,-10.50573077315
    ));
#407 = CARTESIAN_POINT('',(1.470238833142,2.287974832864,-10.10836686936
    ));
#408 = CARTESIAN_POINT('',(9.926149457939E-09,2.287986589493,
    -9.711112411881));
#409 = CARTESIAN_POINT('',(-1.470237412763,2.287993918893,
    -9.313850584565));
#410 = CARTESIAN_POINT('',(-2.940757147137,1.249347210237,
    -8.916499609911));
#411 = CARTESIAN_POINT('',(-3.593509541256,-0.834202024157,
    -8.519476801017));
#412 = CARTESIAN_POINT('',(-2.617996213561,-3.210545833937,
    -8.121678464213));
#413 = CARTESIAN_POINT('',(8.212470776174E-02,-4.537456686522,
    -7.725207389167));
#414 = CARTESIAN_POINT('',(3.150679696011,-3.267121251439,
    -7.327014994186));
#415 = CARTESIAN_POINT('',(4.121144829359,-0.418596838302,
    -6.930543919007));
#416 = CARTESIAN_POINT('',(3.131019619503,1.950929419228,-6.532745582342
    ));
#417 = CARTESIAN_POINT('',(1.195949055695,2.962915014972,-6.135722773401
    ));
#418 = CARTESIAN_POINT('',(-0.578229476361,2.657460039967,
    -5.738371798718));
#419 = CARTESIAN_POINT('',(-1.617849436606,1.617850012141,
    -5.341109971444));
#420 = CARTESIAN_POINT('',(-2.657473808091,0.578242806321,
    -4.943855735747));
#421 = CARTESIAN_POINT('',(-2.962846018476,-1.196009988477,
    -4.54649062441));
#422 = CARTESIAN_POINT('',(-1.95113284988,-3.130861684308,
    -4.149490150289));
#423 = CARTESIAN_POINT('',(0.41900604337,-4.121404763417,-3.751661249895
    ));
#424 = CARTESIAN_POINT('',(3.266525614899,-3.150393099815,
    -3.355226882489));
#425 = CARTESIAN_POINT('',(4.538082470497,-8.233769780349E-02,
    -2.956995500892));
#426 = CARTESIAN_POINT('',(3.210071452176,2.618096671988,-2.560561133249
    ));
#427 = CARTESIAN_POINT('',(0.834458161908,3.593481460548,-2.162732233167
    ));
#428 = CARTESIAN_POINT('',(-1.24943931091,2.940760019298,-1.765731758817
    ));
#429 = CARTESIAN_POINT('',(-2.287974706639,1.470238757888,
    -1.368366647591));
#430 = CARTESIAN_POINT('',(-2.287986589476,9.92945486944E-09,
    -0.971112411854));
#431 = CARTESIAN_POINT('',(-2.287993918893,-1.470237412766,
    -0.573850584565));
#432 = CARTESIAN_POINT('',(-1.249347210308,-2.94075714713,
    -0.176499610021));
#433 = CARTESIAN_POINT('',(0.834202024349,-3.593509541254,0.220523199319
    ));
#434 = CARTESIAN_POINT('',(3.210545833631,-2.617996213634,0.618321535147
    ));
#435 = CARTESIAN_POINT('',(4.537456686855,8.212470799225E-02,
    1.014792611735));
#436 = CARTESIAN_POINT('',(3.267121251171,3.150679695618,1.412985004822)
  );
#437 = CARTESIAN_POINT('',(0.418596838481,4.121144829799,1.80945608186)
  );
#438 = CARTESIAN_POINT('',(-1.950929419348,3.131019619157,2.207254417052
    ));
#439 = CARTESIAN_POINT('',(-2.962915014892,1.195949055889,2.604277226932
    ));
#440 = CARTESIAN_POINT('',(-2.657460040009,-0.57822947644,3.001628201144
    ));
#441 = CARTESIAN_POINT('',(-1.617850012128,-1.617849436583,
    3.398890028593));
#442 = CARTESIAN_POINT('',(-0.578242842482,-2.657473665697,
    3.796144485939));
#443 = CARTESIAN_POINT('',(1.196010149072,-2.96284665143,4.193508390174)
  );
#444 = CARTESIAN_POINT('',(3.130861250088,-1.951131137641,4.590512515427
    ));
#445 = CARTESIAN_POINT('',(4.121405632911,0.419002613279,4.988333409883)
  );
#446 = CARTESIAN_POINT('',(3.150391719694,3.26653106131,5.384781597016)
  );
#447 = CARTESIAN_POINT('',(8.233948959124E-02,4.538075397744,
    5.782993487362));
#448 = CARTESIAN_POINT('',(-2.618098603535,3.210079077617,6.179450739184
    ));
#449 = CARTESIAN_POINT('',(-3.593479722675,0.834451300817,6.577257084323
    ));
#450 = CARTESIAN_POINT('',(-2.94076132072,-1.249434173029,6.974276240774
    ));
#451 = CARTESIAN_POINT('',(-1.47023795593,-2.287977872583,7.371628423067
    ));
#452 = CARTESIAN_POINT('',(-4.069751835534E-07,-2.287985022057,
    7.768890028607));
#453 = CARTESIAN_POINT('',(1.470238214752,-2.28799708495,8.166144485905)
  );
#454 = CARTESIAN_POINT('',(2.940755845615,-1.24934207202,8.563508390249)
  );
#455 = CARTESIAN_POINT('',(3.593511279303,0.834195162391,8.960512515283)
  );
#456 = CARTESIAN_POINT('',(2.617994281866,3.210553460389,9.358333410111)
  );
#457 = CARTESIAN_POINT('',(-8.21229160042E-02,4.537449612585,
    9.754781596714));
#458 = CARTESIAN_POINT('',(-3.15068107588,3.267126698971,10.152993487702
    ));
#459 = CARTESIAN_POINT('',(-4.12114396021,0.418593407333,10.549450738851
    ));
#460 = CARTESIAN_POINT('',(-3.131020053456,-1.95092770642,
    10.947257084607));
#461 = CARTESIAN_POINT('',(-1.195948895228,-2.962915648224,
    11.344276240564));
#462 = CARTESIAN_POINT('',(0.578229440236,-2.657459897455,
    11.741628423198));
#463 = CARTESIAN_POINT('',(1.617849436615,-1.617850012146,
    12.138890028542));
#464 = CARTESIAN_POINT('',(2.657473808053,-0.578242806299,
    12.536144264318));
#465 = CARTESIAN_POINT('',(2.96284601857,1.196009988413,12.933509375417)
  );
#466 = CARTESIAN_POINT('',(1.951132849708,3.130861684426,13.330509850054
    ));
#467 = CARTESIAN_POINT('',(-0.419006043116,4.121404763286,
    13.728338749569));
#468 = CARTESIAN_POINT('',(-3.266525615212,3.150393099874,
    14.124773118188));
#469 = CARTESIAN_POINT('',(-4.538082470171,8.233769785919E-02,
    14.523004498409));
#470 = CARTESIAN_POINT('',(-3.210071452458,-2.61809667211,
    14.919438867337));
#471 = CARTESIAN_POINT('',(-0.834458161706,-3.593481460442,
    15.317267766436));
#472 = CARTESIAN_POINT('',(1.249439310793,-2.940760019351,
    15.714268241397));
#473 = CARTESIAN_POINT('',(2.287974706691,-1.470238757872,
    16.111633352321));
#474 = CARTESIAN_POINT('',(2.28798658946,-9.932009353841E-09,
    16.508887588171));
#475 = CARTESIAN_POINT('',(3.219997044777,-2.391444189065E-07,
    -19.49617247699));
#476 = CARTESIAN_POINT('',(3.220021855876,2.069159358667,-19.09890684305
    ));
#477 = CARTESIAN_POINT('',(1.758242612052,4.138566968535,-18.70159867751
    ));
#478 = CARTESIAN_POINT('',(-1.173987090579,5.057658299026,
    -18.30443038566));
#479 = CARTESIAN_POINT('',(-4.518353791049,3.68379290832,-17.90694431238
    ));
#480 = CARTESIAN_POINT('',(-6.38587536994,-0.114683409675,
    -17.50999317666));
#481 = CARTESIAN_POINT('',(-4.597844145725,-4.435014027433,
    -17.11235271364));
#482 = CARTESIAN_POINT('',(-0.589257633955,-5.799238152591,
    -16.71540157737));
#483 = CARTESIAN_POINT('',(2.745737555731,-4.406779675293,
    -16.31791550479));
#484 = CARTESIAN_POINT('',(4.169824517892,-1.683006502956,
    -15.92074721246));
#485 = CARTESIAN_POINT('',(3.739983416295,0.813749727552,-15.52343904712
    ));
#486 = CARTESIAN_POINT('',(2.276884108222,2.276883985409,-15.12617341314
    ));
#487 = CARTESIAN_POINT('',(0.813778245671,3.740011038351,-14.72890495215
    ));
#488 = CARTESIAN_POINT('',(-1.683136303974,4.169681937764,
    -14.33160174622));
#489 = CARTESIAN_POINT('',(-4.406448314512,2.746159702963,
    -13.93442628764));
#490 = CARTESIAN_POINT('',(-5.799782879927,-0.590111940116,
    -13.53694886704));
#491 = CARTESIAN_POINT('',(-4.434412259536,-4.5966000648,-13.13998895202
    ));
#492 = CARTESIAN_POINT('',(-0.11513065829,-6.387186896789,
    -12.74235596695));
#493 = CARTESIAN_POINT('',(3.684007753738,-4.517353964422,
    -12.34539952838));
#494 = CARTESIAN_POINT('',(5.057595833284,-1.174531514623,
    -11.94791652769));
#495 = CARTESIAN_POINT('',(4.138575617904,1.758444908883,-11.55074683429
    ));
#496 = CARTESIAN_POINT('',(2.069159884045,3.219975804696,-11.15343913222
    ));
#497 = CARTESIAN_POINT('',(8.684170715867E-08,3.220000298962,
    -10.75617341314));
#498 = CARTESIAN_POINT('',(-2.069158832059,3.220015083444,
    -10.35890486705));
#499 = CARTESIAN_POINT('',(-4.13856844086,1.758254165382,-9.961602124383
    ));
#500 = CARTESIAN_POINT('',(-5.057655000355,-1.174003732439,
    -9.564425264799));
#501 = CARTESIAN_POINT('',(-3.683798921421,-4.518333157788,
    -9.16695091594));
#502 = CARTESIAN_POINT('',(0.114692467714,-6.385897677681,
    -8.769985698857));
#503 = CARTESIAN_POINT('',(4.435002628276,-4.597822938669,
    -8.372360191433));
#504 = CARTESIAN_POINT('',(5.799250204933,-0.589275427849,
    -7.975394973869));
#505 = CARTESIAN_POINT('',(4.406768964736,2.745750712884,-7.577920625613
    ));
#506 = CARTESIAN_POINT('',(1.683014460293,4.169816013482,-7.180743765631
    ));
#507 = CARTESIAN_POINT('',(-0.813754606715,3.739988142395,
    -6.783441023103));
#508 = CARTESIAN_POINT('',(-2.276881576678,2.276881914877,
    -6.386172477001));
#509 = CARTESIAN_POINT('',(-3.740015903654,0.813782675919,
    -5.988906843023));
#510 = CARTESIAN_POINT('',(-4.169674041989,-1.683143493688,-5.5915986776
    ));
#511 = CARTESIAN_POINT('',(-2.746170247032,-4.40643871333,
    -5.194430385481));
#512 = CARTESIAN_POINT('',(0.590123658936,-5.799793550913,
    -4.796944312678));
#513 = CARTESIAN_POINT('',(4.596589195282,-4.434402361633,
    -4.399993176307));
#514 = CARTESIAN_POINT('',(6.387195266967,-0.115138280651,
    -4.002352713997));
#515 = CARTESIAN_POINT('',(4.517348692928,3.684012554601,-3.605401577095
    ));
#516 = CARTESIAN_POINT('',(1.174534146101,5.057593436531,-3.207915504974
    ));
#517 = CARTESIAN_POINT('',(-1.758445881677,4.138576504025,
    -2.810747212378));
#518 = CARTESIAN_POINT('',(-3.219975585835,2.069159684639,
    -2.413439047158));
#519 = CARTESIAN_POINT('',(-3.220000298927,8.684029476069E-08,
    -2.016173413131));
#520 = CARTESIAN_POINT('',(-3.220015083447,-2.069158832061,
    -1.618904867053));
#521 = CARTESIAN_POINT('',(-1.758254165509,-4.138568440827,
    -1.221602124439));
#522 = CARTESIAN_POINT('',(1.174003732808,-5.057655000408,
    -0.824425264633));
#523 = CARTESIAN_POINT('',(4.518333157158,-3.683798921481,
    -0.426950916255));
#524 = CARTESIAN_POINT('',(6.385897678449,0.114692468083,
    -2.998569841544E-02));
#525 = CARTESIAN_POINT('',(4.597822937942,4.435002627562,0.367639808091)
  );
#526 = CARTESIAN_POINT('',(0.589275428428,5.799250205757,0.764605026535)
  );
#527 = CARTESIAN_POINT('',(-2.745750713295,4.406768964093,1.162079374118
    ));
#528 = CARTESIAN_POINT('',(-4.169816013229,1.683014460646,1.559256234509
    ));
#529 = CARTESIAN_POINT('',(-3.739988142514,-0.813754606854,
    1.956558976843));
#530 = CARTESIAN_POINT('',(-2.276881914843,-2.276881576639,
    2.353827523012));
#531 = CARTESIAN_POINT('',(-0.813782689927,-3.740015607985,
    2.751093242012));
#532 = CARTESIAN_POINT('',(1.683143555679,-4.169675356201,3.14840094442)
  );
#533 = CARTESIAN_POINT('',(4.40643854604,-2.746166691974,3.545570637013)
  );
#534 = CARTESIAN_POINT('',(5.799793885351,0.590116537324,3.94305363896)
  );
#535 = CARTESIAN_POINT('',(4.43440183151,4.596600503002,4.340010076223)
  );
#536 = CARTESIAN_POINT('',(0.115138968245,6.387180582854,4.737643062123)
  );
#537 = CARTESIAN_POINT('',(-3.684013295455,4.517364524411,5.134602976983
    ));
#538 = CARTESIAN_POINT('',(-5.057592770045,1.174519901526,5.532080397337
    ));
#539 = CARTESIAN_POINT('',(-4.138577003172,-1.758435214704,5.9292558562)
  );
#540 = CARTESIAN_POINT('',(-2.069159377017,-3.219982158802,
    6.326559061975));
#541 = CARTESIAN_POINT('',(-2.391509661415E-07,-3.21999704473,
    6.723827523018));
#542 = CARTESIAN_POINT('',(2.069159139695,-3.220021656649,7.121093241998
    ));
#543 = CARTESIAN_POINT('',(4.138567941643,-1.758243497696,7.518400944451
    ));
#544 = CARTESIAN_POINT('',(5.057655666945,1.173989486445,7.915570636956)
  );
#545 = CARTESIAN_POINT('',(3.6837981806,4.518348991353,8.313053639043));
#546 = CARTESIAN_POINT('',(-0.114691780521,6.385882991217,8.710010076121
    ));
#547 = CARTESIAN_POINT('',(-4.435003157609,4.597834248517,9.10764306223)
  );
#548 = CARTESIAN_POINT('',(-5.799249871389,0.589268304641,9.504602976879
    ));
#549 = CARTESIAN_POINT('',(-4.406769131358,-2.745747156813,9.90208039743
    ));
#550 = CARTESIAN_POINT('',(-1.683014398637,-4.169817328229,
    10.299255856128));
#551 = CARTESIAN_POINT('',(0.813754592816,-3.739987846508,
    10.696559062022));
#552 = CARTESIAN_POINT('',(2.276881576693,-2.27688191489,11.093827522994
    ));
#553 = CARTESIAN_POINT('',(3.74001590359,-0.813782675862,11.491093157003
    ));
#554 = CARTESIAN_POINT('',(4.169674042139,1.683143493527,11.888401322324
    ));
#555 = CARTESIAN_POINT('',(2.746170246756,4.406438713625,12.285569614678
    ));
#556 = CARTESIAN_POINT('',(-0.590123658501,5.799793550565,
    12.683055687062));
#557 = CARTESIAN_POINT('',(-4.596589195877,4.434402361864,13.08000682403
    ));
#558 = CARTESIAN_POINT('',(-6.387195266284,0.115138280638,
    13.477647285654));
#559 = CARTESIAN_POINT('',(-4.517348693564,-3.684012554731,
    13.874598423194));
#560 = CARTESIAN_POINT('',(-1.174534145634,-5.057593436404,
    14.272084494837));
#561 = CARTESIAN_POINT('',(1.758445881412,-4.138576504081,
    14.669252787718));
#562 = CARTESIAN_POINT('',(3.219975585949,-2.06915968463,15.066560952805
    ));
#563 = CARTESIAN_POINT('',(3.220000298893,-8.683875374338E-08,
    15.463826586879));
#564 = CARTESIAN_POINT('',(4.349998647393,3.49667944044E-08,
    -19.36496020015));
#565 = CARTESIAN_POINT('',(4.350021677643,2.795309969707,-18.96768074649
    ));
#566 = CARTESIAN_POINT('',(2.375320461481,5.590834533936,-18.57044162422
    ));
#567 = CARTESIAN_POINT('',(-1.586152162244,6.832811540311,
    -18.17306986399));
#568 = CARTESIAN_POINT('',(-6.103620964434,4.976080349182,
    -17.77599944655));
#569 = CARTESIAN_POINT('',(-8.627425649771,-0.154324270934,
    -17.37842176287));
#570 = CARTESIAN_POINT('',(-6.210807880879,-5.991959630147,
    -16.98149774986));
#571 = CARTESIAN_POINT('',(-0.79648153612,-7.834012721316,
    -16.58392006568));
#572 = CARTESIAN_POINT('',(3.709544208039,-5.953424900644,
    -16.18684964886));
#573 = CARTESIAN_POINT('',(5.633063020658,-2.273583431922,
    -15.78947788821));
#574 = CARTESIAN_POINT('',(5.052482030332,1.0993166548,-15.39223876612)
  );
#575 = CARTESIAN_POINT('',(3.075915770422,3.075915615625,-14.99495931242
    ));
#576 = CARTESIAN_POINT('',(1.09934263983,5.05250832258,-14.59768253958)
  );
#577 = CARTESIAN_POINT('',(-2.273704418824,5.632928934525,
    -14.20043871424));
#578 = CARTESIAN_POINT('',(-5.953116189141,3.70993945441,-13.80307375005
    ));
#579 = CARTESIAN_POINT('',(-7.834520968675,-0.797281645153,
    -13.40599512747));
#580 = CARTESIAN_POINT('',(-5.99139761201,-6.209644167182,
    -13.00842576901));
#581 = CARTESIAN_POINT('',(-0.154741250887,-8.628652534928,
    -12.61149466479));
#582 = CARTESIAN_POINT('',(4.97628109157,-6.102685499582,-12.21392200872
    ));
#583 = CARTESIAN_POINT('',(6.832753445442,-1.586661014853,
    -11.81684867887));
#584 = CARTESIAN_POINT('',(5.590842412727,2.375509970654,-11.41947824682
    ));
#585 = CARTESIAN_POINT('',(2.795310249048,4.349978753031,-11.02223868541
    ));
#586 = CARTESIAN_POINT('',(1.094584134442E-07,4.350001689794,
    -10.62495931242));
#587 = CARTESIAN_POINT('',(-2.795310075138,4.350015327525,
    -10.22768262028));
#588 = CARTESIAN_POINT('',(-5.590834888329,2.37533134485,-9.830438355637
    ));
#589 = CARTESIAN_POINT('',(-6.832809933452,-1.586167942657,
    -9.433074720024));
#590 = CARTESIAN_POINT('',(-4.976084131626,-6.103601230088,
    -9.035993184499));
#591 = CARTESIAN_POINT('',(0.154330740359,-8.627447210513,-8.638428854)
  );
#592 = CARTESIAN_POINT('',(5.991950884802,-6.210787138778,
    -8.241490658746));
#593 = CARTESIAN_POINT('',(7.83402237481,-0.796499158676,-7.843926327714
    ));
#594 = CARTESIAN_POINT('',(5.953416088318,3.709557396697,-7.446844792883
    ));
#595 = CARTESIAN_POINT('',(2.273590090722,5.633054404918,-7.049481156772
    ));
#596 = CARTESIAN_POINT('',(-1.099320780706,5.0524868585,-6.652236892349)
  );
#597 = CARTESIAN_POINT('',(-3.075913566463,3.075913517013,
    -6.254960200143));
#598 = CARTESIAN_POINT('',(-5.052512461603,1.099347191403,-5.85768074652
    ));
#599 = CARTESIAN_POINT('',(-5.63292221741,-2.273711805436,
    -5.460441624168));
#600 = CARTESIAN_POINT('',(-3.709948424483,-5.953106325017,
    -5.063069864106));
#601 = CARTESIAN_POINT('',(0.797291614593,-7.834531931887,
    -4.665999446413));
#602 = CARTESIAN_POINT('',(6.2096349203,-5.991387443089,-4.26842176303)
  );
#603 = CARTESIAN_POINT('',(8.628659655533,-0.154749081907,
    -3.871497749713));
#604 = CARTESIAN_POINT('',(6.1026810151,4.97628602381,-3.473920065811));
#605 = CARTESIAN_POINT('',(1.586663253442,6.832750983128,-3.07684964878)
  );
#606 = CARTESIAN_POINT('',(-2.375510798199,5.590843323074,
    -2.679477888265));
#607 = CARTESIAN_POINT('',(-4.349978566854,2.795310044195,
    -2.282238766094));
#608 = CARTESIAN_POINT('',(-4.350001689761,1.094536779822E-07,
    -1.884959312437));
#609 = CARTESIAN_POINT('',(-4.35001532753,-2.795310075138,
    -1.487682620277));
#610 = CARTESIAN_POINT('',(-2.375331344961,-5.590834888292,
    -1.090438355627));
#611 = CARTESIAN_POINT('',(1.586167942989,-6.832809933522,
    -0.693074720063));
#612 = CARTESIAN_POINT('',(6.1036012295,-4.976084131646,-0.295993184421)
  );
#613 = CARTESIAN_POINT('',(8.627447211267,0.15433074066,0.101571145882)
  );
#614 = CARTESIAN_POINT('',(6.210787138019,5.991950884181,0.498509341404)
  );
#615 = CARTESIAN_POINT('',(0.796499159312,7.834022375538,0.896073672125)
  );
#616 = CARTESIAN_POINT('',(-3.709557397155,5.953416087752,1.293155207258
    ));
#617 = CARTESIAN_POINT('',(-5.633054404643,2.273590091029,1.690518843132
    ));
#618 = CARTESIAN_POINT('',(-5.052486858626,-1.099320780825,2.0877631077)
  );
#619 = CARTESIAN_POINT('',(-3.075913516978,-3.07591356643,2.48503979984)
  );
#620 = CARTESIAN_POINT('',(-1.099347178435,-5.052512185161,
    2.882319172836));
#621 = CARTESIAN_POINT('',(2.273711747546,-5.632923446134,3.279558734323
    ));
#622 = CARTESIAN_POINT('',(5.953106481981,-3.709945100717,3.676929166102
    ));
#623 = CARTESIAN_POINT('',(7.834531616833,0.797284956378,4.074002496365)
  );
#624 = CARTESIAN_POINT('',(5.991387944141,6.209645492155,4.471575152166)
  );
#625 = CARTESIAN_POINT('',(0.154748430515,8.628645927081,4.868506256212)
  );
#626 = CARTESIAN_POINT('',(-4.976285321106,6.102695816212,5.266075615276
    ));
#627 = CARTESIAN_POINT('',(-6.832751615489,1.586649935956,5.66315423717)
  );
#628 = CARTESIAN_POINT('',(-5.590842849582,-2.375500825457,
    6.060519201801));
#629 = CARTESIAN_POINT('',(-2.795310335917,-4.349984712044,
    6.457763026982));
#630 = CARTESIAN_POINT('',(3.496503997447E-08,-4.349998647348,
    6.855039799837));
#631 = CARTESIAN_POINT('',(2.795309783408,-4.350021472942,7.252319172844
    ));
#632 = CARTESIAN_POINT('',(5.590835361819,-2.375321371429,7.649558734304
    ));
#633 = CARTESIAN_POINT('',(6.832809301071,1.586154623818,8.046929166145)
  );
#634 = CARTESIAN_POINT('',(4.97608483452,6.103616033168,8.444002496283)
  );
#635 = CARTESIAN_POINT('',(-0.154331392283,8.627433479875,8.841575152295
    ));
#636 = CARTESIAN_POINT('',(-5.991950382895,6.21079771257,9.238506256049)
  );
#637 = CARTESIAN_POINT('',(-7.834022690775,0.796492499037,9.63607561544)
  );
#638 = CARTESIAN_POINT('',(-5.953415930683,-3.70955407204,
    10.033154237034));
#639 = CARTESIAN_POINT('',(-2.273590148954,-5.633055634112,
    10.430519201895));
#640 = CARTESIAN_POINT('',(1.09932079379,-5.052486581865,10.827763026928
    ));
#641 = CARTESIAN_POINT('',(3.075913566476,-3.075913517026,
    11.225039799863));
#642 = CARTESIAN_POINT('',(5.05251246155,-1.099347191344,11.622319253458
    ));
#643 = CARTESIAN_POINT('',(5.632922217532,2.273711805275,12.019558375879
    ));
#644 = CARTESIAN_POINT('',(3.709948424261,5.953106325311,12.416930135822
    ));
#645 = CARTESIAN_POINT('',(-0.797291614231,7.834531931535,
    12.814000553678));
#646 = CARTESIAN_POINT('',(-6.209634920824,5.991387443342,13.21157823687
    ));
#647 = CARTESIAN_POINT('',(-8.628659654901,0.154749081849,13.60850225039
    ));
#648 = CARTESIAN_POINT('',(-6.102681015706,-4.976286023886,
    14.006079934091));
#649 = CARTESIAN_POINT('',(-1.58666325299,-6.832750983046,
    14.403150351301));
#650 = CARTESIAN_POINT('',(2.375510797942,-5.590843323105,
    14.800522111681));
#651 = CARTESIAN_POINT('',(4.349978566962,-2.795310044196,
    15.197761233933));
#652 = CARTESIAN_POINT('',(4.35000168973,-1.094493465026E-07,
    15.595040687554));
#653 = CARTESIAN_POINT('',(4.349999328634,8.113227267792E-08,
    -18.45111150858));
#654 = CARTESIAN_POINT('',(4.350011153015,2.795309979723,-18.05383205492
    ));
#655 = CARTESIAN_POINT('',(2.375366533344,5.590836607521,-17.65659293269
    ));
#656 = CARTESIAN_POINT('',(-1.58627607725,6.832796762315,-17.25922117237
    ));
#657 = CARTESIAN_POINT('',(-6.103393068736,4.976130102051,
    -16.86215075505));
#658 = CARTESIAN_POINT('',(-8.627724666996,-0.154427301215,
    -16.46457307129));
#659 = CARTESIAN_POINT('',(-6.210523429761,-5.991820891468,
    -16.06764905823));
#660 = CARTESIAN_POINT('',(-0.796677842672,-7.834138484707,
    -15.67007137422));
#661 = CARTESIAN_POINT('',(3.709642182837,-5.953347575154,
    -15.27300095722));
#662 = CARTESIAN_POINT('',(5.633028831008,-2.273614484597,
    -14.87562919668));
#663 = CARTESIAN_POINT('',(5.052489334609,1.099324075484,-14.47839007454
    ));
#664 = CARTESIAN_POINT('',(3.075915176516,3.075915087006,-14.08111062086
    ));
#665 = CARTESIAN_POINT('',(1.099337297391,5.052502994306,-13.68383384801
    ));
#666 = CARTESIAN_POINT('',(-2.27367672625,5.632959559593,-13.28659002271
    ));
#667 = CARTESIAN_POINT('',(-5.953188794978,3.709845949321,
    -12.88922505842));
#668 = CARTESIAN_POINT('',(-7.834400077112,-0.79709039239,
    -12.49214643598));
#669 = CARTESIAN_POINT('',(-5.991531488927,-6.209923750946,
    -12.09457707742));
#670 = CARTESIAN_POINT('',(-0.154641841244,-8.628356919133,
    -11.69764597318));
#671 = CARTESIAN_POINT('',(4.976233492875,-6.102910954598,
    -11.30007331725));
#672 = CARTESIAN_POINT('',(6.832766907065,-1.586538198453,
    -10.90299998722));
#673 = CARTESIAN_POINT('',(5.590840615889,2.375464258691,-10.5056295553)
  );
#674 = CARTESIAN_POINT('',(2.79531007192,4.349989070339,-10.10838999384)
  );
#675 = CARTESIAN_POINT('',(6.329268442684E-08,4.350000896047,
    -9.711110620864));
#676 = CARTESIAN_POINT('',(-2.795310179969,4.350007877001,
    -9.313833928711));
#677 = CARTESIAN_POINT('',(-5.590836540577,2.375372160342,
    -8.916589664106));
#678 = CARTESIAN_POINT('',(-6.832796295084,-1.586284261252,
    -8.519226028394));
#679 = CARTESIAN_POINT('',(-4.976131601699,-6.103382793442,
    -8.122144493007));
#680 = CARTESIAN_POINT('',(0.154430146156,-8.62773594692,-7.724580162412
    ));
#681 = CARTESIAN_POINT('',(5.991816852718,-6.210512520226,
    -7.327641967129));
#682 = CARTESIAN_POINT('',(7.834143063948,-0.796687162503,
    -6.930077636243));
#683 = CARTESIAN_POINT('',(5.953343328378,3.709649194222,-6.532996101242
    ));
#684 = CARTESIAN_POINT('',(2.273617724558,5.633024229977,-6.135632465245
    ));
#685 = CARTESIAN_POINT('',(-1.099326094737,5.052491922034,
    -5.738388200776));
#686 = CARTESIAN_POINT('',(-3.07591408081,3.075913966073,-5.34111150858)
  );
#687 = CARTESIAN_POINT('',(-5.052505026681,1.099339742317,
    -4.943832054948));
#688 = CARTESIAN_POINT('',(-5.632956261304,-2.273680694049,
    -4.546592932636));
#689 = CARTESIAN_POINT('',(-3.709850353868,-5.953183496357,
    -4.149221172477));
#690 = CARTESIAN_POINT('',(0.797095287638,-7.834405966116,
    -3.752150754919));
#691 = CARTESIAN_POINT('',(6.209919210514,-5.991526026595,
    -3.354573071445));
#692 = CARTESIAN_POINT('',(8.628360415493,-0.154646047736,
    -2.957649058093));
#693 = CARTESIAN_POINT('',(6.102908752642,4.976236142255,-2.560071374343
    ));
#694 = CARTESIAN_POINT('',(1.586539297631,6.832765584426,-2.163000957137
    ));
#695 = CARTESIAN_POINT('',(-2.375464665025,5.590841104882,
    -1.765629196739));
#696 = CARTESIAN_POINT('',(-4.349988978925,2.795309961884,-1.36839007452
    ));
#697 = CARTESIAN_POINT('',(-4.35000089603,6.328950835632E-08,
    -0.971110620873));
#698 = CARTESIAN_POINT('',(-4.350007877004,-2.795310179969,
    -0.573833928705));
#699 = CARTESIAN_POINT('',(-2.375372160397,-5.590836540557,
    -0.176589664095));
#700 = CARTESIAN_POINT('',(1.586284261422,-6.832796295125,0.220773971566
    ));
#701 = CARTESIAN_POINT('',(6.103382793131,-4.9761316017,0.617855507072)
  );
#702 = CARTESIAN_POINT('',(8.627735947332,0.154430146303,1.015419837468)
  );
#703 = CARTESIAN_POINT('',(6.210512519803,5.991816852405,1.412358033023)
  );
#704 = CARTESIAN_POINT('',(0.796687162859,7.834143064315,1.809922363594)
  );
#705 = CARTESIAN_POINT('',(-3.709649194477,5.953343328095,2.2070038989)
  );
#706 = CARTESIAN_POINT('',(-5.633024229826,2.27361772471,2.604367534658)
  );
#707 = CARTESIAN_POINT('',(-5.052491922101,-1.099326094795,
    3.001611799273));
#708 = CARTESIAN_POINT('',(-3.075913966054,-3.075914080794,
    3.398888491404));
#709 = CARTESIAN_POINT('',(-1.099339729274,-5.052504884258,
    3.796167864408));
#710 = CARTESIAN_POINT('',(2.273680635943,-5.632956894334,4.193407425856
    ));
#711 = CARTESIAN_POINT('',(5.953183653726,-3.709848641495,4.590777857729
    ));
#712 = CARTESIAN_POINT('',(7.834405650553,0.797091857401,4.987851187861)
  );
#713 = CARTESIAN_POINT('',(5.991526528051,6.209924657003,5.385423843748)
  );
#714 = CARTESIAN_POINT('',(0.154645396191,8.628353342774,5.782354947834)
  );
#715 = CARTESIAN_POINT('',(-4.976235439596,6.102916377979,6.179924306742
    ));
#716 = CARTESIAN_POINT('',(-6.8327662167,1.586532436631,6.577002928814)
  );
#717 = CARTESIAN_POINT('',(-5.590840631431,-2.375459527187,
    6.974367893327));
#718 = CARTESIAN_POINT('',(-2.795310253603,-4.349992144859,
    7.371611718556));
#719 = CARTESIAN_POINT('',(8.113241012353E-08,-4.349999328611,
    7.768888491401));
#720 = CARTESIAN_POINT('',(2.795309888241,-4.350011043054,8.166167864416
    ));
#721 = CARTESIAN_POINT('',(5.590837014045,-2.375367022143,8.563407425837
    ));
#722 = CARTESIAN_POINT('',(6.832795662767,1.58627739953,8.960777857768)
  );
#723 = CARTESIAN_POINT('',(4.976132304501,6.103390419827,9.357851187786)
  );
#724 = CARTESIAN_POINT('',(-0.15443079802,8.627728873044,9.755423843868)
  );
#725 = CARTESIAN_POINT('',(-5.991816350792,6.210517967735,10.15235494768
    ));
#726 = CARTESIAN_POINT('',(-7.834143379997,0.796683731518,
    10.549924306899));
#727 = CARTESIAN_POINT('',(-5.953343170652,-3.709647481385,
    10.947002928682));
#728 = CARTESIAN_POINT('',(-2.273617782847,-5.633024863249,
    11.34436789342));
#729 = CARTESIAN_POINT('',(1.099326107844,-5.052491779513,
    11.741611718501));
#730 = CARTESIAN_POINT('',(3.075914080817,-3.07591396608,12.138888491427
    ));
#731 = CARTESIAN_POINT('',(5.052505026656,-1.099339742286,12.53616794503
    ));
#732 = CARTESIAN_POINT('',(5.63295626136,2.273680693963,12.933407067411)
  );
#733 = CARTESIAN_POINT('',(3.709850353768,5.953183496515,13.33077882745)
  );
#734 = CARTESIAN_POINT('',(-0.797095287471,7.834405965924,
    13.727849245173));
#735 = CARTESIAN_POINT('',(-6.209919210766,5.991526026737,
    14.125426928453));
#736 = CARTESIAN_POINT('',(-8.628360415179,0.154646047696,
    14.522350942012));
#737 = CARTESIAN_POINT('',(-6.102908752948,-4.976236142285,
    14.919928625557));
#738 = CARTESIAN_POINT('',(-1.5865392974,-6.832765584391,15.316999042946
    ));
#739 = CARTESIAN_POINT('',(2.375464664893,-5.590841104894,
    15.714370803207));
#740 = CARTESIAN_POINT('',(4.349988978981,-2.795309961887,
    16.111609925507));
#741 = CARTESIAN_POINT('',(4.350000896014,-6.328661228405E-08,
    16.508889379117));
#742 = DEFINITIONAL_REPRESENTATION('',(#743),#747);
#743 = LINE('',#744,#745);
#744 = CARTESIAN_POINT('',(6.28318530718,0.));
#745 = VECTOR('',#746,1.);
#746 = DIRECTION('',(0.,1.));
#747 = ( GEOMETRIC_REPRESENTATION_CONTEXT(2) 
PARAMETRIC_REPRESENTATION_CONTEXT() REPRESENTATION_CONTEXT('2D SPACE',''
  ) );
#748 = PCURVE('',#118,#749);
#749 = DEFINITIONAL_REPRESENTATION('',(#750),#754);
#750 = LINE('',#751,#752);
#751 = CARTESIAN_POINT('',(0.,0.));
#752 = VECTOR('',#753,1.);
#753 = DIRECTION('',(0.,1.));
#754 = ( GEOMETRIC_REPRESENTATION_CONTEXT(2) 
PARAMETRIC_REPRESENTATION_CONTEXT() REPRESENTATION_CONTEXT('2D SPACE',''
  ) );
#755 = ORIENTED_EDGE('',*,*,#756,.F.);
#756 = EDGE_CURVE('',#24,#24,#757,.T.);
#757 = SURFACE_CURVE('',#758,(#766,#773),.PCURVE_S1.);
#758 = ( BOUNDED_CURVE() B_SPLINE_CURVE(6,(#759,#760,#761,#762,#763,#764
,#765),.UNSPECIFIED.,.T.,.F.) B_SPLINE_CURVE_WITH_KNOTS((1,6,6,1),(
    -6.28318530718,0.,6.28318530718,12.566370614359),.UNSPECIFIED.) 
CURVE() GEOMETRIC_REPRESENTATION_ITEM() RATIONAL_B_SPLINE_CURVE((
    1.669078461068,1.03672962321,1.038346699848,0.853534330196,
1.038346699848,1.03672962321,1.669078461068)) REPRESENTATION_ITEM('') );
#759 = CARTESIAN_POINT('',(4.350000896014,-6.328661228405E-08,
    16.508889379117));
#760 = CARTESIAN_POINT('',(4.350000102298,-1.712387442954E-08,
    17.422738070681));
#761 = CARTESIAN_POINT('',(3.219998483533,1.874308491745E-08,
    17.553950208448));
#762 = CARTESIAN_POINT('',(2.28798658946,-9.932009353841E-09,
    16.508887588171));
#763 = CARTESIAN_POINT('',(3.220000298893,-8.683875374338E-08,
    15.463826586879));
#764 = CARTESIAN_POINT('',(4.35000168973,-1.094493465026E-07,
    15.595040687554));
#765 = CARTESIAN_POINT('',(4.350000896014,-6.328661228405E-08,
    16.508889379117));
#766 = PCURVE('',#118,#767);
#767 = DEFINITIONAL_REPRESENTATION('',(#768),#772);
#768 = LINE('',#769,#770);
#769 = CARTESIAN_POINT('',(0.,66.482730283533));
#770 = VECTOR('',#771,1.);
#771 = DIRECTION('',(1.,0.));
#772 = ( GEOMETRIC_REPRESENTATION_CONTEXT(2) 
PARAMETRIC_REPRESENTATION_CONTEXT() REPRESENTATION_CONTEXT('2D SPACE',''
  ) );
#773 = PCURVE('',#774,#779);
#774 = PLANE('',#775);
#775 = AXIS2_PLACEMENT_3D('',#776,#777,#778);
#776 = CARTESIAN_POINT('',(3.800088028793,-4.905762145842E-08,
    16.508888901495));
#777 = DIRECTION('',(-2.587503495321E-08,-1.,5.05146157605E-08));
#778 = DIRECTION('',(1.377765629465E-31,-5.05146157605E-08,-1.));
#779 = DEFINITIONAL_REPRESENTATION('',(#780),#788);
#780 = ( BOUNDED_CURVE() B_SPLINE_CURVE(6,(#781,#782,#783,#784,#785,#786
,#787),.UNSPECIFIED.,.T.,.F.) B_SPLINE_CURVE_WITH_KNOTS((1,6,6,1),(
    -6.28318530718,0.,6.28318530718,12.566370614359),.UNSPECIFIED.) 
CURVE() GEOMETRIC_REPRESENTATION_ITEM() RATIONAL_B_SPLINE_CURVE((
    1.669078461068,1.03672962321,1.038346699848,0.853534330196,
1.038346699848,1.03672962321,1.669078461068)) REPRESENTATION_ITEM('') );
#781 = CARTESIAN_POINT('',(-4.776224926673E-07,0.549912867221));
#782 = CARTESIAN_POINT('',(-0.913849169186,0.549912073504));
#783 = CARTESIAN_POINT('',(-1.045061306953,-0.580089545261));
#784 = CARTESIAN_POINT('',(1.313323910068E-06,-1.512101439333));
#785 = CARTESIAN_POINT('',(1.045062314616,-0.5800877299));
#786 = CARTESIAN_POINT('',(0.913848213941,0.549913660937));
#787 = CARTESIAN_POINT('',(-4.776224926673E-07,0.549912867221));
#788 = ( GEOMETRIC_REPRESENTATION_CONTEXT(2) 
PARAMETRIC_REPRESENTATION_CONTEXT() REPRESENTATION_CONTEXT('2D SPACE',''
  ) );
#789 = ORIENTED_EDGE('',*,*,#21,.F.);
#790 = ORIENTED_EDGE('',*,*,#791,.T.);
#791 = EDGE_CURVE('',#22,#22,#792,.T.);
#792 = SURFACE_CURVE('',#793,(#801,#808),.PCURVE_S1.);
#793 = ( BOUNDED_CURVE() B_SPLINE_CURVE(6,(#794,#795,#796,#797,#798,#799
,#800),.UNSPECIFIED.,.T.,.F.) B_SPLINE_CURVE_WITH_KNOTS((1,6,6,1),(
    -6.28318530718,0.,6.28318530718,12.566370614359),.UNSPECIFIED.) 
CURVE() GEOMETRIC_REPRESENTATION_ITEM() RATIONAL_B_SPLINE_CURVE((
    1.669078461068,1.03672962321,1.038346699848,0.853534330196,
1.038346699848,1.03672962321,1.669078461068)) REPRESENTATION_ITEM('') );
#794 = CARTESIAN_POINT('',(4.349999328634,8.113227267792E-08,
    -18.45111150858));
#795 = CARTESIAN_POINT('',(4.350000009876,1.272977423472E-07,
    -17.53726281702));
#796 = CARTESIAN_POINT('',(3.219998602889,-1.335563207805E-07,
    -17.40604885542));
#797 = CARTESIAN_POINT('',(2.28798502208,-4.069671036833E-07,
    -18.45110997142));
#798 = CARTESIAN_POINT('',(3.219997044777,-2.391444189065E-07,
    -19.49617247699));
#799 = CARTESIAN_POINT('',(4.349998647393,3.49667944044E-08,
    -19.36496020015));
#800 = CARTESIAN_POINT('',(4.349999328634,8.113227267792E-08,
    -18.45111150858));
#801 = PCURVE('',#118,#802);
#802 = DEFINITIONAL_REPRESENTATION('',(#803),#807);
#803 = LINE('',#804,#805);
#804 = CARTESIAN_POINT('',(0.,0.));
#805 = VECTOR('',#806,1.);
#806 = DIRECTION('',(1.,0.));
#807 = ( GEOMETRIC_REPRESENTATION_CONTEXT(2) 
PARAMETRIC_REPRESENTATION_CONTEXT() REPRESENTATION_CONTEXT('2D SPACE',''
  ) );
#808 = PCURVE('',#809,#814);
#809 = PLANE('',#810);
#810 = AXIS2_PLACEMENT_3D('',#811,#812,#813);
#811 = CARTESIAN_POINT('',(3.800086461413,-4.903759588077E-08,
    -18.45111109864));
#812 = DIRECTION('',(2.367100246179E-07,-1.,5.051745726057E-08));
#813 = DIRECTION('',(-1.,-2.367100246179E-07,-4.626134675787E-31));
#814 = DEFINITIONAL_REPRESENTATION('',(#815),#823);
#815 = ( BOUNDED_CURVE() B_SPLINE_CURVE(6,(#816,#817,#818,#819,#820,#821
,#822),.UNSPECIFIED.,.T.,.F.) B_SPLINE_CURVE_WITH_KNOTS((1,6,6,1),(
    -6.28318530718,0.,6.28318530718,12.566370614359),.UNSPECIFIED.) 
CURVE() GEOMETRIC_REPRESENTATION_ITEM() RATIONAL_B_SPLINE_CURVE((
    1.669078461068,1.03672962321,1.038346699848,0.853534330196,
1.038346699848,1.03672962321,1.669078461068)) REPRESENTATION_ITEM('') );
#816 = CARTESIAN_POINT('',(-0.549912867221,4.099404264934E-07));
#817 = CARTESIAN_POINT('',(-0.549913548462,-0.913848281623));
#818 = CARTESIAN_POINT('',(0.580087858524,-1.04506224322));
#819 = CARTESIAN_POINT('',(1.512101439333,-1.127217686303E-06));
#820 = CARTESIAN_POINT('',(0.580089416637,1.045061378349));
#821 = CARTESIAN_POINT('',(-0.549912185979,0.913849101504));
#822 = CARTESIAN_POINT('',(-0.549912867221,4.099404264934E-07));
#823 = ( GEOMETRIC_REPRESENTATION_CONTEXT(2) 
PARAMETRIC_REPRESENTATION_CONTEXT() REPRESENTATION_CONTEXT('2D SPACE',''
  ) );
#824 = ADVANCED_FACE('',(#825),#809,.T.);
#825 = FACE_BOUND('',#826,.T.);
#826 = EDGE_LOOP('',(#827));
#827 = ORIENTED_EDGE('',*,*,#791,.T.);
#828 = ADVANCED_FACE('',(#829),#774,.F.);
#829 = FACE_BOUND('',#830,.F.);
#830 = EDGE_LOOP('',(#831));
#831 = ORIENTED_EDGE('',*,*,#756,.T.);
#832 = ( GEOMETRIC_REPRESENTATION_CONTEXT(3) 
GLOBAL_UNCERTAINTY_ASSIGNED_CONTEXT((#836)) GLOBAL_UNIT_ASSIGNED_CONTEXT
((#833,#834,#835)) REPRESENTATION_CONTEXT('Context #1',
  '3D Context with UNIT and UNCERTAINTY') );
#833 = ( LENGTH_UNIT() NAMED_UNIT(*) SI_UNIT(.MILLI.,.METRE.) );
#834 = ( NAMED_UNIT(*) PLANE_ANGLE_UNIT() SI_UNIT($,.RADIAN.) );
#835 = ( NAMED_UNIT(*) SI_UNIT($,.STERADIAN.) SOLID_ANGLE_UNIT() );
#836 = UNCERTAINTY_MEASURE_WITH_UNIT(LENGTH_MEASURE(2.E-05),#833,
  'distance_accuracy_value','confusion accuracy');
#837 = PRODUCT_RELATED_PRODUCT_CATEGORY('part',$,(#7));
ENDSEC;
END-ISO-10303-21;
